<svg width="24" height="25" viewBox="0 0 24 25" fill="none" xmlns="http://www.w3.org/2000/svg">
<path d="M20.7514 24.9988H2.44176C0.786571 24.9988 -0.385246 23.3875 0.117659 21.8105L1.92421 16.176C2.59801 14.0667 4.88793 12.9437 6.97279 13.6956C8.19832 14.1399 9.74121 14.4768 11.5966 14.4768C13.452 14.4768 14.9949 14.1399 16.2204 13.6956C18.3004 12.9437 20.5952 14.0667 21.269 16.176L23.0755 21.8105C23.5784 23.3875 22.4066 24.9988 20.7514 24.9988Z" fill="white"/>
<path d="M11.5966 12.2064C14.9673 12.2064 17.6998 9.47393 17.6998 6.10322C17.6998 2.7325 14.9673 0 11.5966 0C8.22591 0 5.49341 2.7325 5.49341 6.10322C5.49341 9.47393 8.22591 12.2064 11.5966 12.2064Z" fill="white"/>
<path d="M17.8805 13.4759L11.5966 22.3817L5.31271 13.4759C5.85956 13.4271 6.42106 13.4954 6.96791 13.6956C8.19343 14.1399 9.73633 14.4768 11.5917 14.4768C13.4471 14.4768 14.99 14.1399 16.2155 13.6956C16.7721 13.5003 17.3336 13.432 17.8805 13.4759Z" fill="white"/>
<path d="M9.2481 21.9227L10.7226 17.0841C10.7617 16.9523 10.747 16.8156 10.6787 16.6984L9.28228 14.2961C9.99025 14.4133 10.7617 14.4817 11.5966 14.4817C12.4315 14.4817 13.203 14.4133 13.911 14.2961L12.5145 16.6984C12.4462 16.8156 12.4315 16.9571 12.4706 17.0841L13.9451 21.9227C13.9891 22.0741 13.9598 22.2352 13.867 22.3622L11.9677 24.8279C11.7724 25.0573 11.4208 25.0573 11.2255 24.8279L9.32622 22.3622C9.23345 22.2401 9.19927 22.0741 9.2481 21.9227Z" fill="white"/>
</svg>
