<svg width="35" height="48" viewBox="0 0 35 48" fill="none" xmlns="http://www.w3.org/2000/svg">
<path d="M24.8757 33.5636L27.0657 30.0099L31.0179 28.662L31.4557 24.5111L34.4292 21.5838L33.0155 17.6546L34.4292 13.7254L31.4558 10.7981L31.018 6.64721L27.0658 5.29932L24.8758 1.74552L20.7334 2.24567L17.2146 0L13.6958 2.24586L9.55354 1.74571L7.36353 5.29942L3.41134 6.6473L2.97349 10.7982L0 13.7254L1.41374 17.6547L0 21.584L2.9734 24.5112L3.41125 28.6621L7.36343 30.01L9.55345 33.5637L13.6958 33.0637L17.2146 35.3094L20.7334 33.0637L24.8757 33.5636ZM5.10804 17.6547C5.10804 10.9792 10.5391 5.54813 17.2146 5.54813C23.8902 5.54813 29.3212 10.9792 29.3212 17.6547C29.3212 24.3303 23.8902 29.7613 17.2146 29.7613C10.5391 29.7613 5.10804 24.3303 5.10804 17.6547Z" fill="#455A64"/>
<path d="M17.2146 8.35606C12.0873 8.35606 7.91595 12.5274 7.91595 17.6547C7.91595 22.782 12.0873 26.9534 17.2146 26.9534C22.3419 26.9534 26.5133 22.782 26.5133 17.6547C26.5133 12.5274 22.3419 8.35606 17.2146 8.35606Z" fill="#455A64"/>
<path d="M13.0333 35.9719L8.10575 36.5668L5.50229 32.3419L4.61723 32.0402L0.799652 43.9725L7.67238 43.5945L13.0494 47.8916L16.2137 38.0016L13.0333 35.9719Z" fill="#455A64"/>
<path d="M28.9269 32.342L26.3234 36.5668L21.3959 35.9719L18.2156 38.0016L21.3798 47.8916L26.7568 43.5945L33.6296 43.9725L29.812 32.0402L28.9269 32.342Z" fill="#455A64"/>
</svg>
