<svg width="34" height="26" viewBox="0 0 34 26" fill="none" xmlns="http://www.w3.org/2000/svg">
<path d="M28.6319 2.50671C26.5486 1.5512 24.3146 0.847214 21.9787 0.444013C21.9362 0.436232 21.8937 0.455678 21.8718 0.494573C21.5845 1.00538 21.2662 1.67176 21.0433 2.19554C18.531 1.81957 16.0316 1.81957 13.5708 2.19554C13.3478 1.66012 13.018 1.00538 12.7294 0.494573C12.7075 0.456976 12.665 0.437529 12.6225 0.444013C10.2879 0.845925 8.05391 1.54991 5.9693 2.50671C5.95126 2.51449 5.93579 2.52747 5.92552 2.54431C1.68802 8.87243 0.527191 15.045 1.09665 21.1411C1.09923 21.1709 1.11598 21.1994 1.13917 21.2175C3.93495 23.2699 6.64315 24.5158 9.30105 25.3416C9.34359 25.3546 9.38866 25.3391 9.41573 25.304C10.0445 24.4458 10.6049 23.5409 11.0854 22.5892C11.1138 22.5335 11.0867 22.4673 11.0288 22.4453C10.1398 22.1082 9.29332 21.6972 8.47906 21.2305C8.41465 21.1929 8.4095 21.1008 8.46875 21.0568C8.6401 20.9284 8.81149 20.7949 8.97511 20.66C9.00471 20.6354 9.04596 20.6302 9.08076 20.6458C14.4301 23.0871 20.2214 23.0871 25.5076 20.6458C25.5424 20.6289 25.5836 20.6341 25.6145 20.6587C25.7782 20.7936 25.9495 20.9284 26.1222 21.0568C26.1814 21.1008 26.1775 21.1929 26.1131 21.2305C25.2989 21.7063 24.4524 22.1082 23.5621 22.444C23.5042 22.4661 23.4784 22.5335 23.5067 22.5892C23.9976 23.5395 24.558 24.4445 25.1752 25.3027C25.201 25.3391 25.2473 25.3546 25.2899 25.3416C27.9606 24.5158 30.6688 23.2699 33.4646 21.2175C33.4891 21.1994 33.5046 21.1722 33.5071 21.1423C34.1887 14.0946 32.3656 7.97269 28.6744 2.5456C28.6654 2.52747 28.65 2.51449 28.6319 2.50671ZM11.8843 17.4292C10.2738 17.4292 8.94675 15.9512 8.94675 14.1362C8.94675 12.3211 10.248 10.8431 11.8843 10.8431C13.5334 10.8431 14.8475 12.334 14.8218 14.1362C14.8218 15.9512 13.5205 17.4292 11.8843 17.4292ZM22.7453 17.4292C21.1348 17.4292 19.8078 15.9512 19.8078 14.1362C19.8078 12.3211 21.109 10.8431 22.7453 10.8431C24.3944 10.8431 25.7086 12.334 25.6828 14.1362C25.6828 15.9512 24.3944 17.4292 22.7453 17.4292Z" fill="#23353D"/>
</svg>
