<svg width="67" height="101" viewBox="0 0 67 101" fill="none" xmlns="http://www.w3.org/2000/svg">
<path d="M65.3008 10.3086C66.2392 10.3086 67 11.0694 67 12.0078V46.1055C67 47.0439 66.2392 47.8047 65.3008 47.8047C62.4854 47.8047 60.2031 45.5224 60.2031 42.707V15.4062C60.2031 12.5909 62.4854 10.3086 65.3008 10.3086Z" fill="white"/>
<path d="M22.5938 41.0078V44.4062C22.5938 45.3447 21.833 46.1055 20.8945 46.1055H10.6992C9.7608 46.1055 9 45.3447 9 44.4062V41.0078H22.5938Z" fill="white"/>
<path d="M22.5938 22.3164H30.4506C31.5733 21.07 32.9887 20.1157 34.6016 19.5423V10.1953H29.9337C29.5937 10.417 28.4354 11.8945 26.1055 11.8945C23.2945 11.8945 21.0078 9.60784 21.0078 6.79688C21.0078 3.98591 23.2945 1.69922 26.1055 1.69922C28.4382 1.69922 29.5931 3.17629 29.9337 3.39844H34.3924L34.794 2.26676C35.2752 0.911008 36.5629 0 38 0C39.4371 0 40.7248 0.911008 41.206 2.26676L41.6076 3.39844H46.0663C46.4063 3.17675 47.5646 1.69922 49.8945 1.69922C52.7055 1.69922 54.9922 3.98591 54.9922 6.79688C54.9922 9.60784 52.7055 11.8945 49.8945 11.8945C47.5618 11.8945 46.4069 10.4175 46.0663 10.1953H41.3984V19.5423C43.0113 20.1156 44.4267 21.07 45.5494 22.3164H56.8047V35.9102H45.5801H45.5494C43.6832 37.9817 41.0076 39.3086 38 39.3086C34.9924 39.3086 32.3168 37.9817 30.4506 35.9102H30.4199H25.9922C24.7479 35.9102 23.7066 36.6118 23.1146 37.6094H9V35.9102C9 28.4024 15.086 22.3164 22.5938 22.3164Z" fill="white"/>
<path d="M12.6623 53.2873L14.325 50.3783C14.627 49.849 15.1896 49.522 15.7986 49.522H15.8003C16.4093 49.522 16.9701 49.8473 17.2738 50.3749L18.9366 53.2954C19.1074 53.7138 19.1953 54.1535 19.1953 54.6016C19.1953 56.475 17.6703 58 15.7969 58C13.9234 58 12.3984 56.475 12.3984 54.6016C12.3984 54.1757 12.4509 53.6573 12.6623 53.2873Z" fill="white"/>
<path d="M34.0926 77.9257C33.2597 75.4404 31.8537 73.1049 29.8744 71.1256C28.0948 69.346 26.0273 68.0298 23.8218 67.177L1.17704 89.8218C2.02984 92.0273 3.34603 94.0948 5.12563 95.8744C7.10493 97.8537 9.4404 99.2597 11.9257 100.093L34.0926 77.9257Z" fill="#00A57D"/>
<path d="M15.9983 100.936C20.9632 101.361 26.075 99.6738 29.8744 95.8744C33.6738 92.075 35.3609 86.9632 34.9358 81.9983L15.9983 100.936Z" fill="#00A57D"/>
<path d="M5.12563 71.1256C9.15883 67.0924 14.6709 65.4394 19.9163 66.1666L0.166631 85.9163C-0.560569 80.6709 1.09243 75.1588 5.12563 71.1256Z" fill="#00A57D"/>
<path d="M26.2299 92.2299C21.4085 97.0512 13.5915 97.0512 8.77014 92.2299C3.94877 87.4085 3.94877 79.5915 8.77014 74.7701C13.5915 69.9488 21.4085 69.9488 26.2299 74.7701C31.0512 79.5915 31.0512 87.4085 26.2299 92.2299Z" fill="#00A57D"/>
<path fill-rule="evenodd" clip-rule="evenodd" d="M20.0315 81.5468L20.0315 81.5469L15.9189 81.5469L15.9189 79.4905C15.9189 78.3568 16.8415 77.4342 17.9752 77.4342C18.8392 77.4342 19.5805 77.97 19.8844 78.7268L21.3166 78.7268C20.9686 77.2034 19.6025 76.0634 17.9752 76.0634C16.0855 76.0634 14.548 77.6008 14.548 79.4905L14.548 81.5469L13.8626 81.5469C13.1066 81.5469 12.4917 82.1617 12.4917 82.9177L12.4917 88.4012C12.4917 89.1572 13.1066 89.7721 13.8626 89.7721L22.0878 89.7721C22.8439 89.7721 23.4587 89.1572 23.4587 88.4012L23.4587 82.9177C23.4587 82.1617 22.8439 81.5469 22.0878 81.5469L21.4024 81.5469L21.4024 81.5468H20.0315Z" fill="white"/>
</svg>
