<svg width="25" height="22" viewBox="0 0 25 22" fill="none" xmlns="http://www.w3.org/2000/svg">
<path d="M7.61375 15.9274C8.36035 17.0473 9.60468 17.7939 11.0979 18.0428C11.5334 18.105 11.9067 18.1672 12.3422 18.1672C12.9022 18.1672 13.4621 18.105 13.8976 17.9183C14.3954 17.7317 14.8931 17.4828 15.2664 17.234C15.5775 17.0473 15.8263 16.7985 16.0752 16.4252C16.8218 15.5541 17.2573 14.4342 17.3817 13.0655C17.5062 11.6345 17.1329 10.0169 16.2618 8.33701C15.9508 7.65263 15.5152 7.03047 15.1419 6.47052C14.9553 6.22165 14.7686 5.91057 14.582 5.6617C13.711 4.29294 13.151 2.86196 12.5911 1.36876C12.4666 1.05768 12.3422 0.746596 12.2178 0.435513V0.373303C12.1556 0.311086 12.0933 0.186648 12.0311 0.124431L11.9689 0H11.9067H11.8445H11.7823V0.124431L11.72 0L11.5956 0.0622203V0.124431L11.5334 0.248872C11.5334 0.311088 11.4712 0.311086 11.4712 0.373303L11.409 0.497734C10.849 2.48866 9.91577 4.29294 9.10695 5.78613C8.85809 6.28387 8.60921 6.71938 8.36035 7.21711C8.23591 7.46598 8.04927 7.77706 7.92483 8.02593C7.4271 8.89696 7.11603 9.58134 6.92938 10.2657C6.55608 11.3234 6.43164 12.1944 6.49385 13.0032C6.55607 13.9365 6.92937 14.932 7.61375 15.9274ZM7.98705 10.1413C8.36035 9.08361 8.98252 8.15036 9.54247 7.27933C9.79133 6.90603 9.97798 6.53273 10.2268 6.22165C11.0357 4.9151 11.5956 3.54634 11.9689 2.17758C12.28 3.17304 12.7155 4.1685 13.0888 5.10175C13.3999 5.84835 13.8354 6.53273 14.2087 7.15489C14.3331 7.40376 14.4576 7.59041 14.6442 7.83928C15.7641 9.76799 17.0084 12.5677 15.453 15.1186C14.7064 16.3629 12.9022 16.6118 11.5334 16.4252C10.3513 16.3007 9.35582 15.7408 8.73365 14.932C8.29814 14.372 7.80041 13.5632 7.67597 12.5677C7.48932 11.8833 7.61376 11.1368 7.98705 10.1413Z" fill="white"/>
<path d="M10.0402 14.9942C10.2268 15.1186 10.3513 15.1808 10.5379 15.243C10.7246 15.3053 10.849 15.3053 10.9734 15.3053C11.0357 15.3053 11.0357 15.3053 11.0979 15.3053C11.2223 15.3053 11.409 15.1808 11.409 15.0564C11.4712 14.932 11.409 14.7453 11.2845 14.6831C11.2223 14.6831 11.2223 14.6209 11.1601 14.5587C11.0979 14.4964 11.0357 14.4342 10.9112 14.4342L10.849 14.372C10.7246 14.3098 10.6624 14.2476 10.6001 14.2476C10.3513 14.1231 10.1646 13.9365 9.97798 13.7498C9.54246 13.3143 9.29359 12.8788 9.16916 12.3811C9.10695 12.2567 8.98252 12.1322 8.79587 12.1944C8.60922 12.2567 8.547 12.3811 8.547 12.5055C8.60921 13.1899 8.92029 13.8743 9.29359 14.3098C9.54246 14.5587 9.79133 14.7453 10.0402 14.9942Z" fill="white"/>
<path d="M24.1633 16.1763C23.79 14.5587 22.1724 14.1231 20.9281 13.8121C20.7414 13.7498 20.5548 13.8743 20.4304 14.0609C20.3681 14.2476 20.4303 14.4964 20.6792 14.6209L20.9903 14.7453C21.7991 15.0564 22.7946 15.4297 23.0434 16.3629C23.1679 16.7984 22.9812 17.3584 22.4213 17.9806C21.9235 18.5405 21.2392 18.8516 20.6792 19.1005C20.2437 19.2871 19.8082 19.4115 19.3105 19.536C19.186 19.536 18.9994 19.5982 18.8749 19.5982C18.6883 19.6604 18.4394 19.6604 18.2528 19.7226C17.8795 19.7848 17.5062 19.8471 17.1329 19.8471C16.884 19.8471 16.6351 19.9093 16.3241 19.9715C16.013 20.0337 15.7019 20.0337 15.453 20.0959H15.2042C14.7686 20.0959 14.2709 20.1581 13.8354 20.1581C13.5243 20.1581 13.2132 20.2204 12.9644 20.2204C12.5289 20.2204 12.1556 20.2204 11.72 20.2204C9.97798 20.2204 8.29814 20.0337 6.74273 19.7226C5.93391 19.5982 5.12509 19.3493 4.31628 19.1005L4.06742 19.0382C3.44525 18.8516 2.76087 18.6649 2.20092 18.3539L2.1387 18.2916C1.82762 18.105 1.51654 17.9806 1.26767 17.6695C1.01881 17.3584 1.08103 16.9229 1.14324 16.5496C1.39211 15.4297 2.32535 14.9942 3.38303 14.5587C3.56968 14.4964 3.6319 14.2476 3.56968 14.1231C3.50747 13.9987 3.38304 13.9365 3.19639 13.9987C2.20093 14.3098 1.26767 14.7453 0.64551 15.5541C0.023345 16.3007 -0.163306 17.234 0.147776 18.0428C0.458858 18.8516 0.956594 19.4115 1.76541 19.8471C2.51201 20.2826 3.32082 20.5937 4.25407 20.9047C6.61829 21.6513 9.10695 21.838 11.5334 21.838C12.8399 21.838 14.1465 21.7758 15.3908 21.7136C17.8795 21.5269 20.5548 20.7803 21.6747 20.1581C22.919 19.4738 24.5366 17.8561 24.1633 16.1763Z" fill="white"/>
</svg>
