<svg width="22" height="25" viewBox="0 0 22 25" fill="none" xmlns="http://www.w3.org/2000/svg">
<path d="M21.7058 12.1609C21.2214 11.4789 20.4636 10.9798 19.7103 10.6228C18.7554 10.1697 17.7704 10.0079 16.7273 9.8703C15.6176 9.72377 14.4923 9.61244 13.3656 9.56317C13.3362 9.57917 13.3075 9.59644 13.2945 9.60668C13.2742 9.62204 13.2546 9.63995 13.2377 9.65851C13.2435 9.65403 13.2168 9.69178 13.2116 9.7001C13.2096 9.7033 13.2076 9.70586 13.207 9.70778C13.207 9.70906 13.2063 9.7097 13.2057 9.71226C13.2018 9.72121 13.1985 9.73081 13.1952 9.73977C13.1868 9.76216 13.1796 9.78456 13.1731 9.80759C13.1613 9.84854 13.1522 9.89077 13.1456 9.933C13.1463 9.93428 13.1411 9.98099 13.1404 9.99059C13.1391 10.0155 13.1385 10.0399 13.1378 10.0648C13.1372 10.1122 13.1385 10.1582 13.1424 10.2056C13.1424 10.2081 13.1437 10.2171 13.145 10.2241C13.145 10.2248 13.145 10.2254 13.1456 10.2261C13.1522 10.2491 13.1561 10.2721 13.1633 10.2952C13.1685 10.3131 13.175 10.331 13.1815 10.3483C13.1809 10.3457 13.1933 10.3764 13.1992 10.3879C13.2044 10.3982 13.2116 10.4084 13.2174 10.4186C13.6535 10.4494 14.0889 10.4858 14.5242 10.5325C16.378 10.7322 18.3781 10.8659 19.9492 11.9466C20.2306 12.1405 20.5158 12.3721 20.724 12.6427C20.7874 12.7253 20.8513 12.8213 20.8898 12.9179C20.8951 12.9313 20.9075 12.9998 20.9016 13.0235C20.7332 13.6927 20.181 14.0869 19.5752 14.378C18.7867 14.7568 17.8976 14.9148 17.0445 15.0838C16.0575 15.2795 15.0634 15.4427 14.0621 15.5521C12.1469 15.762 10.2135 15.7895 8.29506 15.6014C7.32704 15.5061 6.36685 15.3519 5.41579 15.1535C4.90208 15.046 4.39228 14.9238 3.88379 14.7958C3.47321 14.6922 3.0189 14.6052 2.63508 14.4484C2.32307 14.3204 2.00714 14.1297 1.71928 13.9429C1.47385 13.7836 1.15008 13.5891 1.05674 13.2979C0.936633 12.9224 1.2839 12.5109 1.53716 12.2678C1.85309 11.9639 2.2591 11.7546 2.66381 11.5876C3.7676 11.1321 4.97976 10.9331 6.16058 10.7795C7.01111 10.6688 7.86556 10.5901 8.72196 10.5345C8.73241 10.498 8.7422 10.4615 8.74938 10.425C8.75199 10.411 8.7559 10.3419 8.76504 10.3214C8.7657 10.3195 8.767 10.3175 8.76831 10.3163C8.77027 10.3003 8.77157 10.2843 8.77288 10.2683C8.7781 10.2024 8.7794 10.1365 8.77679 10.0706C8.77549 10.0399 8.77222 10.0091 8.76961 9.97907C8.767 9.96499 8.76439 9.95156 8.76178 9.93748C8.75525 9.90741 8.74807 9.87733 8.73828 9.84854C8.73371 9.83447 8.72457 9.81719 8.7187 9.80119C8.71674 9.79735 8.71543 9.79224 8.71413 9.78648C8.71087 9.78008 8.70695 9.77432 8.70303 9.76792C8.69781 9.76344 8.69324 9.7564 8.69063 9.75193C8.68998 9.75129 8.68998 9.75065 8.68932 9.75065C8.68867 9.75001 8.68867 9.75001 8.68802 9.74937C8.6828 9.74873 8.67823 9.74745 8.67496 9.74553C8.66582 9.74489 8.65669 9.74361 8.6469 9.74233C8.64428 9.75065 8.53201 9.73081 8.54507 9.73401C8.53593 9.73145 8.5281 9.72761 8.51961 9.72441C7.84271 9.76152 7.16712 9.81015 6.49283 9.87478C5.14686 10.0047 3.75259 10.1557 2.47973 10.6292C1.52933 10.983 0.588719 11.5179 0.157252 12.4687C-0.062724 12.9531 -0.0588075 13.4835 0.212736 13.9493C0.417046 14.2993 0.744725 14.5469 1.07306 14.7779C1.81654 15.3007 2.592 15.5796 3.46799 15.8202C4.5385 16.1145 5.63055 16.3436 6.72847 16.5132C8.83293 16.8376 10.9622 16.9284 13.0869 16.7697C14.1926 16.6872 15.2945 16.5439 16.3872 16.3577C17.4127 16.183 18.474 16.0179 19.4518 15.6558C20.2854 15.3474 21.0955 14.9091 21.6164 14.1784C22.055 13.5564 22.1555 12.7944 21.7058 12.1609Z" fill="white"/>
<path d="M8.94975 8.13889C9.17364 8.5855 9.39949 9.03211 9.61294 9.4832C9.81791 9.91702 10.0144 10.3547 10.2109 10.7923C10.359 11.1225 10.4746 11.5026 10.6854 11.8078C10.6893 11.8174 10.6932 11.8276 10.6978 11.8372C10.735 11.9217 10.7872 11.9837 10.8479 12.0266C10.844 12.1942 10.8741 12.3478 10.9622 12.4687C11.034 12.5666 11.1508 12.6312 11.2768 12.5941C11.7735 12.4489 11.9491 11.7073 12.1064 11.2812C12.3016 10.7514 12.4707 10.2152 12.628 9.67388C12.7853 9.13257 12.9309 8.58998 13.0614 8.04163C13.1789 7.54703 13.4002 6.91295 13.2383 6.41323C13.1841 6.24559 12.9811 6.19568 12.8499 6.31277C12.457 6.66341 12.3153 7.31733 12.1502 7.79529C12.0085 8.20543 11.8701 8.61621 11.7331 9.02764C11.7298 8.93678 11.7272 8.84656 11.7239 8.7557C11.6906 7.79721 11.6404 6.83872 11.5908 5.88088C11.5412 4.92239 11.4785 3.96198 11.3884 3.00669C11.2983 2.05652 11.2474 1.05708 10.9504 0.143383C10.8923 -0.035774 10.6012 -0.0594483 10.5549 0.143383C10.3434 1.07436 10.3721 2.05844 10.361 3.00669C10.3492 3.98565 10.363 4.96654 10.3838 5.94486C10.4047 6.92446 10.4224 7.90407 10.4517 8.88367C10.4524 8.90095 10.4524 8.91822 10.453 8.93486C9.98436 8.13569 9.48631 7.19704 8.70954 6.65701C8.56659 6.55783 8.41319 6.72099 8.43995 6.86048C8.52612 7.31733 8.74218 7.72363 8.94975 8.13889Z" fill="white"/>
<path d="M1.88054 17.7001C2.58224 18.0693 3.33877 18.3367 4.11032 18.5274C5.74676 18.9318 7.46088 19.1519 9.14758 19.2025C10.6509 19.2479 12.1594 19.1935 13.6587 19.0847C14.9942 18.9881 16.3369 18.8352 17.6398 18.5261C18.5034 18.3214 19.3677 18.045 20.1568 17.6393C20.8507 17.2829 21.8233 16.6514 21.9865 15.8465C22.0243 15.659 21.8572 15.428 21.6399 15.5074C21.3083 15.6276 21.0596 15.8177 20.773 16.0135C20.4512 16.2329 20.1144 16.423 19.7613 16.5906C19.1046 16.9022 18.4303 17.1409 17.7227 17.3162C16.4773 17.6252 15.348 17.7372 14.0745 17.8415C11.0928 18.0853 8.11624 18.1038 5.17234 17.5229C4.34531 17.3597 3.54635 17.1319 2.76762 16.8107C2.0137 16.4998 1.35311 16.0039 0.595274 15.7102C0.369423 15.6225 0.126601 15.8842 0.200362 16.0973C0.459503 16.8504 1.19711 17.3405 1.88054 17.7001Z" fill="white"/>
<path d="M21.792 18.505C21.4121 18.3841 21.0818 18.5594 20.7352 18.7008C20.3814 18.8454 20.0465 19.0265 19.6973 19.182C19.2541 19.379 18.7939 19.5339 18.3304 19.6759C16.9375 20.1027 15.5497 20.4956 14.1052 20.7189C11.0556 21.1904 7.8486 20.9038 4.87403 20.1283C4.1201 19.9319 3.40469 19.6343 2.67949 19.3586C1.96538 19.0873 1.27673 18.7213 0.541739 18.5172C0.43991 18.489 0.364844 18.5984 0.410537 18.6848C0.732994 19.2965 1.34331 19.706 1.91839 20.0784C2.54045 20.4815 3.22453 20.7771 3.92754 21.017C5.47195 21.5443 7.14755 21.8104 8.76702 21.9973C10.3715 22.1822 11.9909 22.2001 13.5961 22.0152C15.2207 21.8277 16.7736 21.4246 18.3298 20.9415C18.8951 20.7662 19.4532 20.5826 19.9989 20.3542C20.3559 20.2044 20.726 20.0483 21.057 19.8487C21.4258 19.626 21.9297 19.3067 21.9956 18.8556C22.0178 18.6976 21.9571 18.5575 21.792 18.505Z" fill="white"/>
<path d="M21.6405 21.3517C21.3004 21.4694 20.9721 21.536 20.6385 21.6812C20.3154 21.822 19.9786 21.9244 19.6476 22.0459C18.9622 22.2974 18.3062 22.6064 17.6091 22.8317C16.1907 23.2898 14.7279 23.5745 13.2383 23.6788C10.3218 23.8829 7.27936 23.6711 4.4967 22.7523C3.80022 22.5226 3.12462 22.25 2.45294 21.9589C2.12918 21.8188 1.80868 21.6659 1.49406 21.5078C1.19249 21.3562 0.904626 21.1821 0.573682 21.1022C0.357623 21.0503 0.219893 21.264 0.304098 21.4458C0.56128 22.0011 1.2062 22.401 1.71469 22.7184C2.29955 23.0831 2.92031 23.3602 3.56196 23.6129C4.8185 24.1082 6.15337 24.4665 7.49216 24.6687C10.7938 25.1658 14.1959 25.1671 17.4198 24.2316C18.2658 23.9859 19.0921 23.6807 19.897 23.3256C20.2821 23.1554 20.6287 22.902 20.9734 22.6647C21.1516 22.5418 21.3533 22.4266 21.5112 22.2795C21.662 22.1387 21.773 21.9589 21.9127 21.8079C22.085 21.6204 21.9192 21.2557 21.6405 21.3517Z" fill="white"/>
</svg>
