<svg width="21" height="25" viewBox="0 0 21 25" fill="none" xmlns="http://www.w3.org/2000/svg">
<path d="M20.7191 11.8505C20.2568 11.1859 19.5334 10.6996 18.8144 10.3517C17.9028 9.91025 16.9626 9.75251 15.9669 9.61847C14.9077 9.47569 13.8335 9.36721 12.7581 9.3192C12.73 9.33479 12.7026 9.35162 12.6902 9.36159C12.6709 9.37656 12.6522 9.39402 12.636 9.4121C12.6416 9.40773 12.616 9.44452 12.611 9.45262C12.6092 9.45574 12.6073 9.45823 12.6067 9.4601C12.6067 9.46135 12.6061 9.46197 12.6054 9.46447C12.6017 9.4732 12.5986 9.48255 12.5955 9.49128C12.5874 9.5131 12.5805 9.53492 12.5743 9.55737C12.5631 9.59727 12.5543 9.63842 12.5481 9.67957C12.5487 9.68081 12.5437 9.72633 12.5431 9.73568C12.5419 9.76 12.5413 9.78369 12.5406 9.808C12.54 9.85414 12.5413 9.89903 12.545 9.94517C12.545 9.94766 12.5462 9.95639 12.5475 9.96325C12.5475 9.96387 12.5475 9.9645 12.5481 9.96512C12.5543 9.98756 12.5581 10.01 12.5649 10.0325C12.5699 10.0499 12.5761 10.0674 12.5824 10.0842C12.5818 10.0817 12.5936 10.1116 12.5992 10.1229C12.6042 10.1328 12.611 10.1428 12.6166 10.1528C13.0329 10.1827 13.4485 10.2183 13.864 10.2638C15.6336 10.4583 17.5427 10.5886 19.0424 11.6416C19.311 11.8306 19.5833 12.0563 19.782 12.32C19.8425 12.4004 19.9035 12.4939 19.9403 12.5881C19.9453 12.6012 19.9571 12.6679 19.9515 12.691C19.7908 13.3431 19.2636 13.7272 18.6854 14.0109C17.9327 14.38 17.0841 14.534 16.2698 14.6985C15.3277 14.8893 14.3787 15.0483 13.4229 15.1549C11.5948 15.3594 9.74924 15.3862 7.91802 15.2029C6.99399 15.11 6.07744 14.9598 5.16962 14.7665C4.67926 14.6618 4.19263 14.5427 3.70726 14.418C3.31534 14.317 2.88168 14.2322 2.51531 14.0794C2.21748 13.9547 1.91591 13.7689 1.64113 13.5869C1.40685 13.4316 1.09781 13.2421 1.00871 12.9584C0.894059 12.5924 1.22554 12.1916 1.46729 11.9546C1.76886 11.6585 2.15641 11.4546 2.54272 11.2919C3.59635 10.848 4.7534 10.6541 5.88055 10.5044C6.69242 10.3966 7.50803 10.3199 8.32551 10.2656C8.33548 10.2301 8.34482 10.1946 8.35168 10.159C8.35417 10.1453 8.35791 10.078 8.36663 10.058C8.36725 10.0561 8.3685 10.0543 8.36975 10.053C8.37162 10.0374 8.37286 10.0219 8.37411 10.0063C8.37909 9.94205 8.38034 9.87783 8.37785 9.81361C8.3766 9.78369 8.37349 9.75376 8.37099 9.72446C8.3685 9.71074 8.36601 9.69765 8.36352 9.68393C8.35729 9.65463 8.35043 9.62532 8.34109 9.59727C8.33672 9.58355 8.328 9.56672 8.32239 9.55113C8.32052 9.54739 8.31928 9.5424 8.31803 9.53679C8.31492 9.53056 8.31118 9.52495 8.30744 9.51871C8.30245 9.51435 8.29809 9.50749 8.2956 9.50312C8.29498 9.5025 8.29498 9.50188 8.29435 9.50188C8.29373 9.50125 8.29373 9.50125 8.29311 9.50063C8.28812 9.50001 8.28376 9.49876 8.28065 9.49689C8.27192 9.49627 8.2632 9.49502 8.25385 9.49377C8.25136 9.50188 8.14419 9.48255 8.15665 9.48567C8.14793 9.48317 8.14045 9.47943 8.13235 9.47631C7.48622 9.51248 6.84134 9.55986 6.1977 9.62283C4.91291 9.7494 3.58202 9.89654 2.36702 10.3579C1.45981 10.7027 0.561959 11.2239 0.150104 12.1504C-0.0598729 12.6224 -0.0561344 13.1392 0.203066 13.5931C0.398089 13.9342 0.710874 14.1755 1.02428 14.4005C1.73397 14.9099 2.47418 15.1817 3.31035 15.4162C4.3322 15.703 5.37461 15.9262 6.42263 16.0914C8.43143 16.4075 10.4639 16.496 12.492 16.3414C13.5475 16.261 14.5993 16.1213 15.6423 15.9399C16.6212 15.7697 17.6343 15.6088 18.5677 15.2559C19.3633 14.9554 20.1366 14.5283 20.6338 13.8163C21.0525 13.2103 21.1484 12.4678 20.7191 11.8505Z" fill="white"/>
<path d="M8.54295 7.93134C8.75667 8.36653 8.97226 8.80171 9.176 9.24126C9.37165 9.66398 9.5592 10.0904 9.74674 10.5169C9.88818 10.8386 9.99846 11.209 10.1997 11.5064C10.2035 11.5157 10.2072 11.5257 10.2116 11.535C10.2471 11.6173 10.2969 11.6778 10.3549 11.7196C10.3511 11.8829 10.3798 12.0326 10.4639 12.1504C10.5324 12.2458 10.644 12.3088 10.7642 12.2726C11.2384 12.1311 11.406 11.4085 11.5562 10.9932C11.7425 10.477 11.9038 9.95452 12.054 9.42706C12.2042 8.8996 12.3431 8.37089 12.4677 7.83657C12.5799 7.35463 12.7911 6.73676 12.6366 6.24983C12.5849 6.08647 12.3911 6.03784 12.2658 6.15194C11.8908 6.4936 11.7555 7.1308 11.5979 7.59653C11.4627 7.99618 11.3306 8.39645 11.1998 8.79735C11.1966 8.70881 11.1942 8.6209 11.191 8.53237C11.1593 7.5984 11.1113 6.66444 11.0639 5.73109C11.0166 4.79713 10.9568 3.86129 10.8708 2.93044C10.7848 2.00458 10.7362 1.03071 10.4527 0.140386C10.3972 -0.0341874 10.1193 -0.057256 10.0751 0.140386C9.87323 1.04754 9.90064 2.00645 9.89005 2.93044C9.87883 3.88436 9.89192 4.84015 9.91186 5.79344C9.9318 6.74798 9.94862 7.70252 9.97666 8.65707C9.97728 8.6739 9.97728 8.69073 9.9779 8.70694C9.53053 7.92822 9.05513 7.01358 8.31366 6.48737C8.17721 6.39073 8.03079 6.54972 8.05633 6.68564C8.13858 7.1308 8.34482 7.5267 8.54295 7.93134Z" fill="white"/>
<path d="M1.79504 17.2479C2.46485 17.6077 3.18699 17.8683 3.92347 18.0541C5.48553 18.4481 7.12173 18.6626 8.73176 18.7119C10.1667 18.7561 11.6066 18.7031 13.0379 18.5971C14.3127 18.503 15.5943 18.354 16.838 18.0528C17.6623 17.8533 18.4873 17.584 19.2406 17.1887C19.9029 16.8414 20.8313 16.2261 20.9871 15.4417C21.0232 15.259 20.8637 15.034 20.6562 15.1113C20.3397 15.2285 20.1023 15.4137 19.8288 15.6044C19.5216 15.8183 19.2001 16.0035 18.863 16.1668C18.2362 16.4705 17.5926 16.703 16.9171 16.8738C15.7283 17.175 14.6504 17.2841 13.4348 17.3857C10.5885 17.6233 7.7473 17.6413 4.93722 17.0752C4.14778 16.9162 3.38513 16.6943 2.6418 16.3813C1.92214 16.0783 1.29159 15.5951 0.568197 15.3089C0.352612 15.2235 0.120827 15.4785 0.191235 15.6861C0.438597 16.42 1.14267 16.8975 1.79504 17.2479Z" fill="white"/>
<path d="M20.8014 18.0323C20.4388 17.9144 20.1235 18.0852 19.7927 18.223C19.4549 18.3639 19.1353 18.5404 18.802 18.6919C18.3789 18.8839 17.9396 19.0348 17.4972 19.1732C16.1676 19.5891 14.8429 19.9719 13.4641 20.1895C10.553 20.649 7.49185 20.3697 4.65248 19.614C3.93283 19.4226 3.24994 19.1327 2.5577 18.864C1.87605 18.5996 1.2187 18.243 0.517117 18.0441C0.419917 18.0167 0.348263 18.1233 0.391879 18.2074C0.699679 18.8035 1.28226 19.2025 1.83119 19.5654C2.42498 19.9582 3.07797 20.2462 3.74902 20.48C5.22322 20.9938 6.82266 21.2531 8.36852 21.4352C9.90005 21.6154 11.4459 21.6328 12.9781 21.4526C14.5289 21.27 16.0112 20.8772 17.4966 20.4064C18.0362 20.2356 18.5689 20.0567 19.0898 19.8341C19.4306 19.6882 19.7839 19.5361 20.0998 19.3416C20.4519 19.1246 20.9329 18.8135 20.9958 18.3739C21.017 18.2199 20.9591 18.0834 20.8014 18.0323Z" fill="white"/>
<path d="M20.6568 20.8061C20.3322 20.9208 20.0188 20.9857 19.7004 21.1272C19.392 21.2644 19.0705 21.3641 18.7546 21.4826C18.1004 21.7276 17.4742 22.0288 16.8087 22.2482C15.4548 22.6946 14.0584 22.9721 12.6366 23.0737C9.85267 23.2726 6.9485 23.0662 4.29232 22.1709C3.6275 21.9471 2.98261 21.6815 2.34147 21.3978C2.03242 21.2613 1.72649 21.1123 1.42617 20.9583C1.1383 20.8105 0.863526 20.6409 0.547625 20.563C0.341387 20.5125 0.209917 20.7207 0.290294 20.8978C0.535787 21.439 1.15139 21.8286 1.63677 22.1379C2.19504 22.4933 2.78759 22.7632 3.40008 23.0095C4.5995 23.4921 5.87369 23.8412 7.15163 24.0382C10.3032 24.5227 13.5506 24.5239 16.628 23.6124C17.4355 23.373 18.2243 23.0756 18.9926 22.7295C19.3602 22.5637 19.6911 22.3168 20.0201 22.0855C20.1902 21.9658 20.3827 21.8536 20.5335 21.7102C20.6774 21.573 20.7833 21.3978 20.9167 21.2507C21.0812 21.068 20.9229 20.7126 20.6568 20.8061Z" fill="white"/>
</svg>
