<svg width="21" height="24" viewBox="0 0 21 24" fill="none" xmlns="http://www.w3.org/2000/svg">
<path d="M1.98317 8.12306C2.5084 6.75675 3.53385 5.61911 4.60075 4.64654C5.63763 3.70183 6.83459 2.92864 8.14731 2.42699C8.90693 2.13686 9.6987 1.92963 10.5026 1.80743C10.6062 1.79171 10.7142 1.7817 10.8242 1.77384C10.6398 1.94678 10.4619 2.12543 10.289 2.30551C9.97811 2.6285 9.69084 2.9708 9.42859 3.33453C9.17919 3.6804 8.92122 4.05485 8.98053 4.46574C8.96767 4.89736 9.43287 5.25609 9.80661 4.92737C9.81161 4.92523 9.8159 4.92309 9.82162 4.92094C9.90022 4.89522 9.96811 4.85163 10.026 4.79017C10.1017 4.71442 10.1603 4.61152 10.2211 4.52362C10.3397 4.35141 10.4469 4.17204 10.5655 3.99982C10.7906 3.67325 11.04 3.36454 11.3023 3.06727C11.7868 2.51774 12.3299 2.02252 12.7479 1.42369C12.8036 1.38653 12.8565 1.34508 12.9073 1.29792C13.0823 1.13499 13.068 0.842006 12.9073 0.677648C12.5778 0.340356 12.1169 0.256748 11.6417 0.266038C11.6053 0.26175 11.5695 0.257463 11.5338 0.253175C11.0807 0.198866 10.6234 0.177428 10.1675 0.158848C9.70585 0.140269 9.24708 0.109541 8.78687 0.0695231C8.57964 0.0516581 8.37312 0.0259325 8.16589 0.00592374C7.94007 -0.0155143 7.73141 0.0280763 7.50703 0.0287909C6.96822 0.0302201 6.74669 0.786267 7.22905 1.05567C7.3098 1.10069 7.38554 1.14643 7.46201 1.19002C6.24218 1.69738 5.11955 2.40555 4.11053 3.26593C2.87856 4.31425 1.71377 5.59052 1.0349 7.07332C0.361027 8.54539 0.0373137 10.2511 0.00229834 11.8647C-0.0169959 12.7515 0.0873357 13.6448 0.234543 14.518C0.399616 15.4977 0.651155 16.5067 1.14852 17.3757C1.24999 17.5529 1.51725 17.4693 1.52297 17.2742C1.54726 16.4246 1.39434 15.5778 1.29858 14.736C1.21569 14.0049 1.15781 13.2746 1.16995 12.5386C1.19425 11.0379 1.44293 9.5294 1.98317 8.12306Z" fill="white"/>
<path d="M15.8242 3.73901C16.7582 3.7926 17.5872 3.05156 17.7937 2.17618C17.9044 1.70454 17.8116 1.20575 17.4943 0.828443C17.1048 0.363954 16.4931 0.253191 15.9129 0.311073C15.4026 0.362524 14.8874 0.515449 14.608 0.979939C14.4708 1.20861 14.4294 1.53661 14.4887 1.82888C14.3293 2.68069 14.8974 3.68613 15.8242 3.73901ZM15.9629 1.6045C16.1058 1.58306 16.4145 1.52875 16.5388 1.64023C16.5767 1.67382 16.6024 1.76457 16.611 1.8053C16.6032 1.79172 16.5932 1.92321 16.5853 1.95394C16.511 2.23549 16.243 2.57778 15.91 2.56992C15.6292 2.56349 15.5077 2.26979 15.4355 1.98895C15.4755 1.92321 15.5141 1.8589 15.5591 1.80316C15.6663 1.67024 15.7435 1.63737 15.9629 1.6045Z" fill="white"/>
<path d="M4.94375 18.3283C4.67577 18.1646 4.32419 18.026 4.00405 18.0253C3.68177 18.0246 3.21728 18.1711 3.04363 18.4676C3.02791 18.4948 3.01504 18.5226 3.00432 18.5505C2.38763 18.7056 2.08535 19.3773 2.0732 19.9768C2.06105 20.6178 2.36047 21.2381 2.89642 21.5954C4.10052 22.3979 5.847 21.4146 5.90631 20.0076C5.93633 19.3208 5.51686 18.6791 4.94375 18.3283ZM4.48069 20.1433C4.28346 20.4964 3.75823 20.6571 3.53813 20.3942C3.26444 20.0669 3.31732 19.6574 3.45309 19.2622C3.64532 19.3058 3.85899 19.313 4.03692 19.3701C4.42209 19.4938 4.65291 19.8339 4.48069 20.1433Z" fill="white"/>
<path d="M20.6742 7.64141C20.572 7.1369 20.4577 6.63168 20.3098 6.13789C20.1547 5.62124 19.9704 5.16747 19.7345 4.68583C19.5616 4.33281 18.9442 4.49288 18.9792 4.8902C19.0164 5.31039 19.0535 5.70628 19.1321 6.1236C19.2165 6.57166 19.3029 7.01971 19.3787 7.46848C19.5094 8.24096 19.6002 9.02488 19.6324 9.80808C19.6967 11.3788 19.4973 12.9823 18.8513 14.4273C17.7465 16.8983 15.542 18.8256 13.0988 19.9197C11.9011 20.4556 10.6062 20.7507 9.29924 20.7786C9.49289 20.6114 9.68012 20.4378 9.86234 20.262C10.3847 19.7582 11.04 19.0936 11.0922 18.3283C11.1036 18.1575 10.9064 18.0067 10.7442 18.0631C10.0681 18.3011 9.56507 18.9807 9.07628 19.4759C8.54033 20.019 7.94364 20.4985 7.40555 21.0373C7.34052 21.1023 7.30264 21.1731 7.28549 21.2438C7.11399 21.3674 7.02181 21.5904 7.17187 21.7955C7.80501 22.6637 8.76257 23.1775 9.81446 23.3733C10.3375 23.4705 10.8814 23.5191 11.4109 23.4476C11.8375 23.3898 12.5607 23.1525 12.6643 22.663C12.6857 22.5608 12.6693 22.4429 12.5871 22.37C12.2991 22.1142 11.7953 22.1442 11.4316 22.1535C11.0014 22.1642 10.5841 22.2064 10.1546 22.1399C10.0967 22.1306 10.0388 22.1206 9.98096 22.1092C12.6057 21.907 15.1146 20.7172 17.1055 19.0043C19.583 16.8733 21.0344 13.8334 20.9994 10.5505C20.9887 9.57298 20.8686 8.59755 20.6742 7.64141Z" fill="white"/>
</svg>
