<svg width="22" height="17" viewBox="0 0 22 17" fill="none" xmlns="http://www.w3.org/2000/svg">
<path d="M21.7233 5.68905L16.6947 0.948224C16.3264 0.600958 15.7293 0.600958 15.3609 0.948224C14.9926 1.29549 14.9926 1.85846 15.3609 2.20573L18.7803 5.42949H0.94285C0.422397 5.42949 0 5.82772 0 6.3184C0 6.80907 0.422397 7.2073 0.94285 7.2073H21.057C21.4379 7.2073 21.7823 6.99041 21.9282 6.65855C22.074 6.32669 21.9935 5.94269 21.7233 5.68905Z" fill="white"/>
<path d="M21.0571 10.1691H0.942946C0.562035 10.1691 0.21758 10.386 0.071753 10.7179C-0.0740744 11.0497 0.00638223 11.4326 0.276666 11.6862L5.3052 16.427C5.48874 16.6001 5.73011 16.6878 5.97148 16.6878C6.21285 16.6878 6.45422 16.6013 6.63776 16.427C7.0061 16.0798 7.0061 15.5168 6.63776 15.1695L3.21836 11.9458H21.0558C21.5763 11.9458 21.9987 11.5475 21.9987 11.0569C21.9987 10.5662 21.5763 10.168 21.0558 10.168L21.0571 10.1691Z" fill="white"/>
</svg>
