<svg width="32" height="26" viewBox="0 0 32 26" fill="none" xmlns="http://www.w3.org/2000/svg">
<path d="M1.03885 20.6917C2.34682 20.532 3.67315 20.704 4.98112 20.4891C5.63812 20.3848 6.23992 20.1637 6.83556 19.9303C5.36187 18.9848 4.03541 17.904 2.80125 16.6084C2.35914 16.1478 2.6784 15.3741 3.32321 15.3557C3.85133 15.3802 4.36712 15.3374 4.87059 15.2329C3.58714 13.6056 2.59239 11.8556 1.8187 9.89059C1.60997 9.36247 2.22397 8.82833 2.72141 8.98789C3.00998 9.10458 3.30472 9.18442 3.60562 9.24578C2.69073 7.04743 2.50035 4.83073 3.00998 2.39899C3.12667 1.8402 3.86352 1.70515 4.23811 2.07358C7.17331 4.95947 10.8822 6.34729 14.849 7.01046C14.4989 4.29631 16.4272 1.41028 18.957 0.464568C21.0571 -0.315284 23.8756 0.218997 25.288 1.98743C26.2337 1.39179 27.5415 1.19525 28.5916 1.01104C29.1442 0.918869 29.6785 1.45931 29.3531 2.00579C28.9723 2.64443 28.6101 3.32595 28.211 3.97692C29.0215 3.73738 29.8567 3.59001 30.6917 3.48564C31.2935 3.4058 31.6558 4.33302 31.1953 4.70144C30.219 5.4813 29.2487 6.37168 28.211 7.08401C28.1803 13.9798 26.1662 19.7644 20.0072 23.6881C14.8735 26.9674 5.33105 26.4147 0.866961 21.9505H0.860799C0.664261 21.9013 0.559897 21.754 0.523054 21.5944C0.351168 21.3365 0.473886 21.0173 0.701104 20.8944C0.787114 20.7899 0.897641 20.7101 1.03885 20.6917Z" fill="#23353D"/>
</svg>
