<svg xmlns="http://www.w3.org/2000/svg" xmlns:xlink="http://www.w3.org/1999/xlink" width="76" height="112" fill="none" xmlns:v="https://vecta.io/nano"><path d="M11.087 21.135v9.242l1.32 2.904C10.383 36.449 5.861 44.529 3.961 51.5c-2.375 8.713-.528 13.202 2.375 21.916 2.323 6.971 11.349 9.066 15.572 9.242l3.959 18.747c1.056 4.647 5.015 6.865 6.862 7.393l2.375-6.073c.176 2.553 1.425 7.658 5.015 7.658s4.839-5.105 5.015-7.658l3.959 4.753 5.279-10.034 1.848-14.787h2.903l9.501-6.337 5.806-9.506c.845-1.267.352-8.626 0-12.146l-5.806-13.73c-1.232-3.521-3.748-10.562-3.959-10.562s.968-2.817 1.584-4.225v-5.017-6.337L74.429 4.5l-5.806-1.584L59.122 4.5 42.23 1.595h-6.862L19.005 4.5 9.24 2.915H2.377l10.029 11.882-1.32 6.337z" fill="#23353d"/><g fill="#fff"><path d="M9.263 35.528c-.008.008-.017.025-.025.033.008-.017.017-.025.025-.033zm13.25 45.996c.008.008.025.008.033.017.008 0 .017.008.025.008.017.008.033.008.041.008-.041-.008-.074-.017-.099-.033zM9.237 35.562c-.008.008-.016.024-.016.024.008-.008.008-.016.016-.024zm8.446 44.609c.117.042.408.142 0 0h0zm-9.644-7.247c.083.1.25.292 0 0h0z"/><path d="M9.263 35.527l.082-.099c.008-.017-.041.041-.082.099zm21.095 70.635l.025.025c.025.017.05.042.075.059.058.033.092.033-.1-.084zm9.053 3.214c.025 0 .049 0 .066.009.025 0 .017 0-.066-.009zm-10.594-4.809c.033.034.058.084.083.117.033.034-.025-.058-.083-.117zm38.185-87.842a.28.28 0 0 0 .025-.066l-.025.066z"/><path d="M72.257 45.347L69.4 39.052l-3.256-6.638-.3-.601c.167-.209.317-.451.45-.66.275-.443.525-.902.75-1.369.458-.952.833-1.945 1.058-2.972.458-2.087.391-4.233-.117-6.304a13.4 13.4 0 0 0-.458-1.52l-.575-1.528a1.13 1.13 0 0 1-.042-.159c-.008-.042-.033-.276-.025-.092.008.125 0 0-.008-.092.017-.084.05-.175.067-.242l.05-.142c-.017.05-.025.042.017-.059v-.008l.691-1.403a37.62 37.62 0 0 1 3.315-5.277c.042-.05.166-.225.175-.234l.217-.276.55-.676 1.174-1.353 2.498-2.48c.308-.276.408-.701.358-1.094-.058-.434-.283-.693-.625-.952-1.716-1.311-4.131-1.645-6.23-1.52-.042 0-.075.008-.117.008l-.333-.017c-1.741-.017-3.564.392-5.155 1.144l-.675.242-1.741.751-.733.434-.316-.2c-.508-.342-1.049-.543-1.624-.751l-2.848-.927A51.86 51.86 0 0 0 49.729.746C45.757.078 41.718-.148 37.703.094a59.27 59.27 0 0 0-12.084 2.029l-2.965.868c-.466.142-.941.284-1.424.384-.058.008-.117.025-.175.033-.008 0-.033.008-.067.008-.017 0-.033.008-.042.008-.058.008-.117.008-.175.017-.117.008-.233.008-.35.008-.083 0-.341.033-.408-.017 0 0 .25.042.083.008l-.167-.025-.283-.067c-.258-.067-.508-.15-.75-.242-.1-.042-.225-.067-.316-.125.2.125.017.008-.092-.042l-.675-.301a24.04 24.04 0 0 0-2.915-1.102C13.019.971 11.02.696 9.055.654c-1.974-.033-3.998.159-5.88.802-.35.117-.691.267-1.033.417-.017 0-.033-.008-.042-.017a1.68 1.68 0 0 0-1.974.969c-.3.71-.067 1.737.683 2.087.933.443 1.849.943 2.682 1.553.017.017.042.042.067.058l.266.217a16.84 16.84 0 0 1 .583.518 17.85 17.85 0 0 1 1.108 1.127 24.31 24.31 0 0 1 1.041 1.219l.25.317c.008.008.017.025.025.033a32.67 32.67 0 0 1 .483.651 99.59 99.59 0 0 1 1.924 2.705l.924 1.353a5.38 5.38 0 0 0 .858 1.01c-.191.242-.375.501-.55.768-.533.827-.949 1.812-1.241 2.747a17.44 17.44 0 0 0-.8 5.669c.05 1.912.416 3.849 1.149 5.611.4.96.866 2.004 1.674 2.689-.083.083-.158.167-.242.259l-.491.551-.242.276a2.54 2.54 0 0 1-.142.159c-.058.058-.1.117-.15.184-.15.192-.15.2-.017.017-.242.2-.425.551-.616.81-.017.017-.05.067-.142.184l-.366.501c-1.208 1.737-2.249 3.565-3.14 5.485-1.832 3.932-3.165 8.09-3.814 12.39-.666 4.417-.824 8.975.033 13.375.416 2.146 1.149 4.266 2.265 6.153 1.174 1.987 2.79 3.632 4.58 5.06 1.816 1.444 3.714 2.864 5.755 3.974 1.066.584 2.19 1.094 3.356 1.444.983.301 2.082.568 3.131.484-.033.209-.058.426-.075.66a27.51 27.51 0 0 0-.075 2.029c-.008 1.352.15 2.672.358 4.008.391 2.463.966 4.918 1.682 7.305.641 2.163 1.474 4.325 2.64 6.262 1.124 1.87 2.64 3.64 4.63 4.609.991.484 2.14.718 3.057-.05.358-.301.541-.727.716-1.152l.2-.526.216-.501.275-.618a13.98 13.98 0 0 0 .142.618c.4 1.444 1.282 2.797 2.557 3.615 2.857 1.837 6.288-.242 7.529-3.023.425-.96.666-1.953.833-2.964a35.81 35.81 0 0 0 2.482 3.156c.266.301.883.326 1.141 0 .025-.025.042-.058.067-.083.858-.25 1.341-1.136 1.84-1.862a36.14 36.14 0 0 0 1.383-2.154c.891-1.528 1.641-3.131 2.265-4.792 1.208-3.206 1.849-6.587 1.982-10.011a26.74 26.74 0 0 0 .008-1.444c.033-1.144.017-2.288-.067-3.423a7.92 7.92 0 0 0 1.083-.05c1.033-.109 2.032-.367 3.007-.701 1.857-.635 3.639-1.511 5.247-2.655a22.41 22.41 0 0 0 7.612-9.376c1.707-3.958 2.424-8.299 2.132-12.599-.325-4.659-1.807-9.101-3.623-13.392zM71.066 4.202l-.158-.025c.075.008.158.017.158.025zM11.611 76.331l-.075-.05c-.208-.167 0-.008.075.05zm20.004 30.983c-.008.009-.008.017-.017.025-.042.042-.1.059.017-.025zm29.348-26.658c.008-.008.075-.033.1-.042-.025.017-.058.033-.1.042zm12.209-17.684l-.075.743c-.008.108-.025.209-.042.317-.008.058-.008.083-.008.1-.008.025-.008.05-.008.075a30.43 30.43 0 0 1-.266 1.519 25.59 25.59 0 0 1-.791 2.922c-.158.468-.333.935-.525 1.394-.025.05-.05.1-.05.125l-.15.342c-.1.225-.208.451-.317.668-.45.902-.958 1.778-1.524 2.605a8.6 8.6 0 0 1-.4.559c-.067.092-.133.184-.208.276l-.017.017c-.033.042-.075.1-.083.1-.283.359-.583.71-.891 1.044a21.12 21.12 0 0 1-2.024 1.937c-.141.117-.325.342-.491.401.025-.008.233-.175.033-.025l-.117.092c-.108.075-.208.159-.316.234a20.98 20.98 0 0 1-1.141.768c-.791.493-1.599.943-2.448 1.328-.1.05-.208.092-.308.142-.033.017-.042.017-.042.017-.017.008-.042.017-.058.017a17.24 17.24 0 0 1-.683.259c-.425.15-.858.292-1.299.418-.883.251-1.782.451-2.665.701l-.625.167a1.07 1.07 0 0 0-.225.05l-.45.1c-.341.067-.591.443-.591.785a.83.83 0 0 0 .167.484c-.025.3.008.618.017.885l.033 1.294c.025.852.025 1.703-.017 2.547-.033.835-.083 1.67-.175 2.505l-.058.518c0 .025-.025.159-.025.2l-.025.2a28.65 28.65 0 0 1-.2 1.219c-.3 1.62-.708 3.223-1.249 4.776-.125.359-.25.71-.391 1.069l-.233.576a10.12 10.12 0 0 0-.075.175l-.133.309c-.325.735-.658 1.461-1.033 2.179a34.84 34.84 0 0 1-1.407 2.497c-.258.401-.583.81-.833 1.236l-2.807-4.15c-.525-.76-1.657-.468-1.716.468-.083 1.386-.242 2.73-.724 4.066-.117.309-.208.517-.375.835l-.233.4c-.042.067-.092.134-.133.201-.008.016-.083.117-.108.142a5.73 5.73 0 0 1-.575.617 2.72 2.72 0 0 1-.65.485 7.79 7.79 0 0 1-.375.208.88.88 0 0 0-.125.059c-.042.017-.075.033-.117.042-.15.05-.3.091-.45.133-.058.017-.125.025-.183.034-.017 0-.033.008-.042.008h-.058c-.158.008-.308.008-.466 0-.033 0-.075-.008-.108-.008-.017 0-.042 0-.067-.009h-.008c-.166-.033-.316-.067-.458-.108-.033-.009-.067-.025-.1-.034.042.009-.117-.05-.158-.066a3.61 3.61 0 0 1-.391-.226l-.15-.1c.158.108-.008-.008-.042-.033a4.82 4.82 0 0 1-.641-.66l-.017-.017a.16.16 0 0 1-.025-.042c-.033-.05-.075-.1-.108-.15-.075-.117-.15-.234-.217-.359s-.125-.25-.192-.376c-.008-.016-.017-.033-.025-.041-.042-.1-.075-.192-.108-.276-.275-.793-.358-1.469-.383-2.271-.017-.434.017-.868.017-1.302 0-.418-.025-.768.058-1.161.092-.467-.092-.952-.558-1.135a.96.96 0 0 0-1.199.392c-.774 1.228-1.374 2.563-2.024 3.857-.3.593-.591 1.186-.916 1.762-.05-.025-.108-.05-.158-.075a7.82 7.82 0 0 1-1.166-.701c-.017-.009-.025-.017-.042-.025-.008-.009-.025-.017-.033-.034-.017-.016-.033-.025-.058-.041.008.008.017.008.033.016-.075-.058-.15-.117-.216-.183a7.64 7.64 0 0 1-.533-.51c-.167-.167-.325-.342-.475-.517-.075-.084-.142-.176-.216-.259l-.008-.009c-.008-.008-.025-.033-.058-.075-.008-.008-.017-.025-.025-.033l-.017-.017.008.009c-.292-.393-.558-.802-.816-1.219a18.46 18.46 0 0 1-.716-1.32 22.78 22.78 0 0 1-.308-.651c-.058-.125-.108-.25-.167-.367-.017-.042-.033-.075-.05-.117a33.87 33.87 0 0 1-1.033-2.914c-.683-2.213-1.283-4.467-1.732-6.738-.133-.668-.241-1.344-.341-2.02a4.92 4.92 0 0 0-.025-.209l-.05-.468-.108-.768a2.24 2.24 0 0 0-.033-.209c0-.025-.008-.042-.008-.058a36.59 36.59 0 0 1-.2-2.087c-.042-.693-.117-1.186-.192-1.778l.341-.275c.267-.217.341-.651.258-.969-.1-.359-.358-.559-.691-.693-.025-.008-.042-.017-.05-.017-.008-.008-.017-.008-.033-.017l-.283-.125c-.008 0-.017-.008-.025-.008-.025-.008-.05-.025-.075-.033.017.008.033.008.042.017-.058-.033-.117-.075-.15-.084a4.29 4.29 0 0 0-.608-.259c-.433-.134-.874-.184-1.324-.234a12.65 12.65 0 0 1-2.274-.593c-.175-.067-.341-.142-.508-.2.008.008.025.008.033.017-.117-.05-.216-.1-.316-.15a19.22 19.22 0 0 1-1.091-.559c-1.474-.81-2.848-1.787-4.197-2.789-.15-.117-.308-.234-.458-.342-.067-.075-.175-.134-.25-.192a24.2 24.2 0 0 1-1.033-.852 18.72 18.72 0 0 1-1.749-1.712 12.65 12.65 0 0 1-.433-.509c-.05-.058-.092-.117-.142-.175.017.017.025.025.033.042-.008-.008-.017-.017-.017-.025a12.75 12.75 0 0 1-.7-1.044c-.192-.309-.366-.635-.533-.96l-.25-.518-.125-.284c-.625-1.578-1.033-3.215-1.283-4.884-.416-3.256-.316-6.587.1-9.844.458-3.256 1.249-6.479 2.374-9.568.133-.367.275-.735.416-1.094.075-.2.158-.392.242-.593a1.57 1.57 0 0 0 .067-.175c.017-.033.033-.075.05-.109.333-.785.691-1.553 1.074-2.321.741-1.494 1.557-2.947 2.382-4.4l1.391-2.379.725-1.169c.033-.058.075-.117.117-.175.058-.075.108-.15.142-.234.042-.075.092-.142.125-.217.133-.242.191-.534.275-.802.167-.526-.25-.927-.708-.96-.216-.426-.458-.827-.691-1.252-.117-.217-.217-.442-.325-.66-.008-.008-.008-.025-.017-.033a7.26 7.26 0 0 1-.142-.384 15.63 15.63 0 0 1-.683-2.747 16.84 16.84 0 0 1-.1-2.672 10.13 10.13 0 0 1 .05-.71 6.04 6.04 0 0 1 .042-.384c0-.017.008-.042.008-.058a19.73 19.73 0 0 1 .275-1.394c.117-.459.258-.91.391-1.361l.233-.718c.083-.225.208-.459.267-.693l.125-.292c.05-.125.092-.25.142-.376.042-.108.092-.217.133-.326l.133-.317c.025-.083.167-.484.017-.134.083-.192.142-.326.192-.518.108-.359.2-.726.075-1.11-.042-.117-.092-.226-.167-.317l-.05-.351c.008.075.025.15.033.234-.017-.075-.025-.376-.067-.526-.1-.359-.267-.726-.466-1.044-.267-.426-.566-.843-.85-1.261l-1.965-2.797c-1.441-1.97-3.006-3.816-4.947-5.293-.058-.05-.117-.092-.175-.142a27.87 27.87 0 0 1 2.507-.167c.933-.017 1.874.025 2.807.125.092.008.208.008.3.033l-.058-.008.167.025.774.125a20.22 20.22 0 0 1 1.374.301c.908.234 1.799.501 2.673.843l.317.125c.033.008.058.025.092.042l.666.292c.508.217 1.016.442 1.549.609 1.099.342 2.207.359 3.323.125.974-.2 1.907-.576 2.857-.868 1.915-.601 3.873-1.069 5.838-1.461.991-.192 1.982-.367 2.981-.509.083-.008.175-.025.258-.033a3.35 3.35 0 0 0 .208-.025l.758-.092c.483-.058.974-.1 1.457-.15a52.24 52.24 0 0 1 5.83-.184 56.46 56.46 0 0 1 2.907.15l1.449.134.691.083a4.99 4.99 0 0 0 .35.042c.067.008.117.017.167.017a51.25 51.25 0 0 1 5.813 1.169 55.95 55.95 0 0 1 2.856.835c.983.317 1.949.768 2.982.91.341.042.142.025.075.017.058.008.117.017.183.033.025 0 .05.008.075.008.217.142.475.2.733.117.933-.326 1.899-.593 2.848-.86.916-.259 1.832-.509 2.757-.718l1.483-.317.683-.117c.05-.008.083-.008.125-.017a7.64 7.64 0 0 1 .425-.042 11.82 11.82 0 0 1 1.441-.033c.233.008.458.025.691.042.017 0 .083.008.15.008.017 0 .042.008.108.017s.142.025.208.033c.117.017.225.042.341.067.167.05.325.109.491.167.083.033.167.067.25.092a38.6 38.6 0 0 0-6.388 8.508c-.541.969-1.124 1.987-1.474 3.047-.217.66-.2 1.378-.008 2.046.142.501.366.985.541 1.478a16.05 16.05 0 0 1 .45 1.528 22.44 22.44 0 0 1 .158.726c.025.117.042.242.058.359 0 .017.008.05.017.092 0 .017 0 .033.008.067a14.48 14.48 0 0 1 .083 1.469c0 .459.017.994-.092 1.444l.017-.117c-.017.083-.025.167-.042.242l-.075.392c-.05.259-.117.518-.192.777s-.158.518-.242.768a7.45 7.45 0 0 1-.142.384c-.008.033-.025.067-.033.1-.008.008-.017.025-.025.05a16.28 16.28 0 0 1-.808 1.561l-.466.76c-.183.317-.291.634-.242 1.002.025.159.067.301.108.451a.82.82 0 0 0 .083.192c.025.184.05.367.117.534.133.334.242.551.342.81l.683 1.686c.475 1.177.999 2.329 1.524 3.49l2.856 6.262.683 1.57c.033.084.075.167.108.259.017.033.083.209.1.242l.333.818c.416 1.035.808 2.087 1.158 3.148a44.17 44.17 0 0 1 .933 3.206 27.67 27.67 0 0 1 .35 1.603c.1.526.242 1.085.275 1.62-.017-.334.008.042.017.125a6.46 6.46 0 0 1 .042.367l.075.793a22.45 22.45 0 0 1 .075 1.495c-.008 1.06-.042 2.079-.133 3.089zm-52.1-20.514c.296.409.742.758 1.248.848a1.6 1.6 0 0 0 1.437-.452c.346-.348.55-.823.662-1.294a4.69 4.69 0 0 0 .089-1.715c-.078-.569-.316-1.122-.733-1.524-.39-.376-.941-.639-1.492-.593-.474.04-.902.251-1.171.649-.274.405-.344.934-.271 1.412-.255.899-.332 1.893.23 2.67zm.423-3.242l.01-.023.072-.177c-.027.07.008-.015.02-.041a1 1 0 0 1 .061-.112c.017-.03.042-.058.058-.088l.026-.03.063-.064.033-.03c.02-.018.025-.026.023-.027.042-.03.107-.051.141-.073l.129-.04a1.3 1.3 0 0 1 .109-.023l.079-.008a1.39 1.39 0 0 1 .141-.001l.046.003c-.019-.001.05.006.064.009a1.34 1.34 0 0 1 .154.04l.067.022.04.016a1.85 1.85 0 0 1 .266.152l.043.031.04.033.12.112.098.108.014.016.059.083a1.76 1.76 0 0 1 .264.607 2.59 2.59 0 0 1 .084.688l-.013.379-.015.168-.01.083c-.002.013-.003.021-.003.029l-.004.023a3.84 3.84 0 0 1-.141.596l-.046.129-.01.024-.035.077a2.08 2.08 0 0 1-.146.261l-.051.073-.095.107-.093.087c-.032.025-.056.042-.081.057a1.37 1.37 0 0 1-.111.063 2.73 2.73 0 0 0-.051.023l-.03.011c-.048.017-.096.027-.145.039l-.102.009c-.044.001-.086-.002-.13-.003-.016 0-.017-.001-.02-.001l-.064-.013-.141-.039-.062-.022-.04-.018c-.085-.044-.168-.09-.246-.146l-.039-.029-.041-.035-.126-.119a1.7 1.7 0 0 1-.357-.523c-.003-.008-.012-.027-.013-.028l-.034-.097-.059-.217a2.75 2.75 0 0 1-.058-.409c-.026-.369.014-.736.069-1.102l.198-.569c.003.005.017-.033.023-.049zm4.711.712l.583-.751.108-.124.011.42.073 1.188.129 1.166.098.663a2.26 2.26 0 0 0 .073.275c.018.054.039.118.068.169.039.066.096.093.149.136.113.092.278.09.359-.047.065-.107.108-.183.111-.327a2.39 2.39 0 0 0-.019-.305l-.09-.616-.136-1.135-.083-1.164-.047-1.197c-.01-.135-.076-.255-.206-.307-.119-.048-.276-.032-.367.07-.116.129-.209.275-.319.409l-.326.432a3.48 3.48 0 0 0-.449.927c-.056.18.185.251.284.119z"/><path d="M31.126 37.87a1.37 1.37 0 0 0-.633.292c-.039-.002-.076.012-.105.047l-.223.281c-.08.105-.133.226-.197.34-.126.222-.203.493-.265.74-.126.499-.176 1.027-.129 1.539.049.53.194 1.035.533 1.454.308.38.781.641 1.275.645.482.003.954-.24 1.276-.593.35-.386.539-.885.621-1.393.157-.986.089-2.129-.683-2.857-.39-.368-.931-.592-1.47-.496zm1.43 2.98l-.011.094-.026.157-.072.306-.044.139-.028.078c-.001.002-.009.022-.014.032-.041.092-.088.181-.142.266l-.044.068-.028.037-.062.069-.092.09-.055.048-.024.017c-.065.044-.133.083-.202.118-.008.002-.064.025-.078.03-.052.017-.104.027-.157.039.067-.015-.034.002-.059.003-.035.001-.07-.001-.105-.003-.004-.002-.067-.01-.083-.014a1.44 1.44 0 0 1-.14-.043c.006.001-.061-.029-.074-.037l-.11-.067-.051-.037c-.005-.004-.01-.009-.017-.017l-.108-.103-.05-.055-.015-.016-.029-.039-.031-.046c-.057-.088-.109-.183-.15-.28-.001-.005-.029-.079-.033-.09l-.043-.139c-.03-.106-.051-.215-.071-.325 0-.002-.005-.031-.006-.039l-.008-.071-.016-.188-.01-.368a4.64 4.64 0 0 1 .047-.688c.037-.237.098-.466.147-.7l.037-.151a1.22 1.22 0 0 1 .293-.201l.113-.064c.001 0 .012-.006.02-.01l.036-.014a1.14 1.14 0 0 1 .11-.032l.086-.017.231-.013.093.007a1.86 1.86 0 0 0 .09.02c.04.011.079.024.118.039.006.004.063.028.076.034l.108.062.059.04.024.017c.065.053.126.111.182.173l.072.084.016.022.05.076a2.16 2.16 0 0 1 .123.222l.018.042.012.029.06.182c.109.393.111.788.066 1.221zm3.76 1.345z"/><path d="M37.813 38.704c-.303-.421-.738-.722-1.258-.797-.444-.065-1.118.017-1.261.522-.283.39-.488.85-.624 1.309-.149.505-.218 1.055-.085 1.572.216.844.982 1.666 1.908 1.63.907-.037 1.503-.819 1.712-1.638a3.43 3.43 0 0 0 .078-1.249c-.057-.475-.187-.954-.47-1.348zm-1.735-.09c.017-.004.042-.01 0 0h0zm-.001 3.515c.016.008.042.021 0 0h0zm1.476-1.444l-.012.129-.003.021-.01.058a2.82 2.82 0 0 1-.131.488l-.017.046-.047.101c-.038.075-.079.147-.126.217l-.047.066-.055.064-.074.075-.045.041-.033.026-.059.041-.104.059-.037.017c-.044.011-.087.03-.131.041l-.105.021-.06.003c-.044.001-.088-.002-.133-.004l-.028-.005-.052-.011-.111-.031-.059-.021c-.089-.045-.165-.089-.239-.139-.001 0-.009-.007-.016-.012l-.032-.026-.089-.081-.096-.101-.062-.074c-.05-.068-.096-.139-.138-.214l-.057-.11-.023-.05-.017-.044a1.81 1.81 0 0 1-.113-.607 2.9 2.9 0 0 1 .056-.702c.085-.425.244-.832.345-1.253l.366-.073.108-.025.064-.007c.079-.006.158-.004.237.003.007.002.058.009.074.012l.112.028.109.037c-.008-.001.081.038.095.046l.101.059.074.053a1.98 1.98 0 0 1 .186.185l.036.042.08.117a2.25 2.25 0 0 1 .135.253l.034.088.041.124a2.75 2.75 0 0 1 .071.291l.019.115a2.79 2.79 0 0 0 .012.102l.014.298-.008.224z"/><path d="M37.541 40.827zm4.63-2.892a1.77 1.77 0 0 0-.801-.061.98.98 0 0 0-.493.216c-.028-.078-.119-.126-.195-.052-.047.048-.086.071-.142.105-.071.043-.109.107-.154.173l-.226.361a5.7 5.7 0 0 0-.344.797c-.167.481-.261 1.008-.222 1.52.042.544.212 1.059.564 1.48.294.353.738.624 1.191.703 2.213.39 2.867-2.74 2.037-4.244-.262-.477-.695-.834-1.215-.999zm-1.478 3.982h0zm.243.241c.014.01.047.039 0 0h0zm2.01-1.339l-.006.053-.023.136-.068.283-.082.244-.013.032-.014.031-.068.137c-.04.074-.083.145-.131.214l-.035.048-.101.112-.094.089-.041.035a2.06 2.06 0 0 1-.208.121c.022-.013-.064.025-.081.031l-.135.035c-.007.002-.02.004-.029.005l-.02.002a1.39 1.39 0 0 1-.154.003l-.094-.008-.108-.022-.133-.04-.049-.017-.02-.008c-.084-.041-.167-.086-.245-.139l-.057-.041-.111-.099-.098-.102-.041-.047a2.31 2.31 0 0 1-.176-.292l-.04-.082-.049-.136a2.34 2.34 0 0 1-.081-.326l-.013-.078-.005-.042-.013-.179a3.19 3.19 0 0 1 .007-.36 3.42 3.42 0 0 1 .134-.697 7.5 7.5 0 0 1 .261-.761c.042-.103.076-.209.109-.316.052.023.11.034.167.023l.256-.04.129-.02.084-.013.242.002.05.005.144.033.128.041.043.016.023.012.248.145.021.016.022.018.099.091.091.099c.002.003.009.011.014.017l.048.07a1.98 1.98 0 0 1 .139.246l.024.052.012.029.055.161a3.04 3.04 0 0 1 .068.277l.017.106.015.154a3.81 3.81 0 0 1-.016.639zm4.281 1.317c.006-.006.013-.011.018-.016-.003.004-.01.01-.018.016zm.56-2.629v-.001c-.015-.032-.019-.037 0 .001z"/><path d="M46.605 43.155c1.016.033 1.728-.843 2.005-1.732.29-.931.209-2.07-.454-2.826-.322-.367-.852-.62-1.347-.595-.247.013-.517.08-.723.221a1.07 1.07 0 0 0-.154.128c-.043-.05-.11-.073-.176-.029-.237.156-.39.371-.56.594s-.284.494-.386.757c-.201.515-.287 1.079-.19 1.627.168.946.995 1.824 1.986 1.856zm-.912-1.348c.012.015.036.05 0 0h0zm.276.279h0zm1.637-2.896c-.031-.044-.012-.015 0 0h0zm-1.313-.34h0zm-.938 1.601l.015-.128c.021-.131.051-.26.088-.387.07-.246.18-.472.261-.711l.073-.194c.065.02.141.011.201-.038.022-.018.047-.034.073-.049.009-.005.098-.048.059-.034l.15-.054.068-.024.11-.029.08-.016.082-.006a1.2 1.2 0 0 1 .134.002l.12.009c.032.002.142.026.045.003l.25.064.045.016c.03.019.065.032.095.049l.103.064.059.05.097.1.044.052a1.98 1.98 0 0 1 .152.253l.02.043.009.018.05.142a2.44 2.44 0 0 1 .076.32l.008.049.013.153c.007.105.009.21.005.316l-.019.263c-.001.004-.01.073-.014.091l-.03.149-.073.264-.046.13-.023.06-.134.256-.072.113-.038.054-.172.19-.072.063c.019-.017-.005.008-.018.017l-.079.053-.111.063-.044.021a1.72 1.72 0 0 1-.228.061c-.002-.002-.072.008-.093.008-.045.001-.088-.002-.133-.004l-.055-.009a1.35 1.35 0 0 1-.142-.038l-.062-.021-.114-.057-.114-.07-.055-.038-.02-.014a2.16 2.16 0 0 1-.194-.182l-.09-.104-.053-.076a2 2 0 0 1-.139-.242l-.032-.073-.049-.141-.039-.151-.018-.108-.017-.358c-.002-.068.002-.137.008-.205zM22.677 59.023c-.247.013-.517.08-.723.221a1.05 1.05 0 0 0-.154.128c-.043-.049-.11-.073-.176-.029-.237.156-.39.371-.56.594s-.284.494-.386.757c-.2.515-.287 1.079-.19 1.627.168.947.995 1.825 1.985 1.857 1.016.033 1.728-.843 2.005-1.732.29-.931.209-2.07-.454-2.826-.32-.369-.851-.621-1.346-.596zm.796 1.188c-.03-.044-.012-.016 0 0h0zm-1.312-.34h0zm-.599 2.958c.012.014.036.049 0 0h0zm.276.279h0zm1.971-1.601l-.019.263c-.001.004-.01.073-.014.091l-.03.149-.073.264-.046.13-.023.06-.134.256-.072.113-.038.054-.172.19-.072.063c.019-.017-.005.007-.018.016l-.079.053-.111.063-.044.021a1.81 1.81 0 0 1-.228.061c-.002-.002-.072.008-.093.008-.044.001-.088-.002-.133-.004l-.055-.009c-.049-.01-.096-.023-.142-.038l-.062-.021-.114-.057-.114-.07-.055-.038-.02-.015a2.16 2.16 0 0 1-.194-.182l-.09-.104-.053-.076a2 2 0 0 1-.139-.242c-.008-.015-.03-.07-.032-.073l-.049-.141a1.55 1.55 0 0 1-.039-.151l-.018-.108-.017-.357.011-.206.015-.128c.021-.131.051-.26.088-.387.07-.246.18-.472.261-.711l.073-.194c.065.02.141.011.201-.038a.63.63 0 0 1 .073-.049c.009-.005.098-.048.059-.034l.15-.054.069-.024.11-.029.08-.016.082-.006a1.2 1.2 0 0 1 .134.002l.12.009c.032.002.142.026.044.003l.25.064.044.016c.03.019.065.032.095.049l.103.064.059.05.097.1.045.052c.059.085.109.167.152.253l.02.044.009.018.05.142c.033.105.058.211.076.32l.008.049.013.153.001.316z"/><path d="M23.656 60.526c-.004-.007-.007-.013-.009-.019-.006-.013-.009-.019.009.019zm-.561 2.631c.006-.006.013-.011.018-.017l-.018.017zm29.347 0c.006-.006.013-.011.018-.017-.004.004-.011.009-.018.017zm.56-2.631v-.001c-.016-.031-.019-.037 0 .001z"/><path d="M52.024 59.023c-.247.013-.517.08-.723.221a1.05 1.05 0 0 0-.154.128c-.043-.049-.11-.073-.176-.029-.237.156-.39.371-.56.594s-.285.494-.386.757c-.2.515-.287 1.079-.19 1.627.168.947.995 1.825 1.986 1.857 1.016.033 1.728-.843 2.005-1.732.29-.931.209-2.07-.454-2.826-.322-.369-.853-.621-1.347-.596zm.796 1.188c-.03-.044-.012-.016 0 0h0zm-1.312-.34h0zm-.599 2.958c.012.014.035.049 0 0h0zm.276.279h0zm1.97-1.601l-.019.263c-.001.004-.01.073-.014.091l-.03.149-.073.264-.045.13-.023.06-.134.256-.072.113-.038.054-.172.19-.072.063c.019-.017-.005.007-.018.016l-.079.053-.111.063-.044.021a1.81 1.81 0 0 1-.228.061c-.002-.002-.072.008-.093.008-.045.001-.088-.002-.133-.004l-.055-.009a1.41 1.41 0 0 1-.142-.038l-.062-.021-.114-.057-.114-.07-.055-.038-.02-.015a2.08 2.08 0 0 1-.194-.182l-.089-.104-.053-.076a2 2 0 0 1-.139-.242c-.008-.015-.03-.07-.032-.073l-.049-.141a1.55 1.55 0 0 1-.039-.151l-.018-.108-.017-.357.011-.206.016-.128c.021-.131.051-.26.088-.387.07-.246.18-.472.261-.711l.073-.194c.065.02.141.011.202-.038.022-.018.047-.034.073-.049.009-.005.098-.048.059-.034l.15-.054.069-.024.11-.029.08-.016.082-.006a1.2 1.2 0 0 1 .134.002l.12.009c.032.002.142.026.044.003l.25.064.044.016c.03.019.065.032.095.049l.103.064.059.05.097.1.045.052c.059.085.109.167.152.253l.02.044.009.018.05.142c.033.105.058.211.077.32l.008.049.013.153v.316zm-3.104-18.902c.285.357.682.661 1.156.662.447.001.882-.195 1.196-.511.304-.306.5-.706.632-1.113a5.3 5.3 0 0 0 .234-1.368c.027-.534-.052-1.087-.328-1.553-.281-.473-.755-.842-1.316-.877-.412-.026-.936.172-1.133.561-.045-.021-.098-.023-.147.01-.42.273-.647.78-.782 1.248-.144.502-.169 1.017-.097 1.533s.259 1.003.584 1.409zm1-.144c-.036-.011-.019-.009 0 0h0zm1.116-3.477c.011.014.02.029 0 0h0zm-.779-.368c.016-.003.029-.006 0 0h0zm-1.235 1.609l.017-.178.001-.008.016-.099a4.1 4.1 0 0 1 .18-.673l.139-.38c.08.065.201.074.309-.014l.151-.112.109-.059c.007-.004.015-.008.022-.011l.04-.016a2.31 2.31 0 0 1 .233-.053l.06-.005a1.44 1.44 0 0 1 .13.002l.056.009.109.027.059.02.14.079.044.029.093.084.095.104.044.062a2.24 2.24 0 0 1 .139.248l.02.053.047.152c.061.227.074.381.073.631-.003.409-.045.731-.148 1.126l-.072.239-.039.109-.024.062c-.075.164-.163.296-.249.439l-.037.044-.073.078-.089.082-.001.001-.04.029a1.1 1.1 0 0 1-.103.062l-.063.031-.084.029-.133.032-.043.006-.028.002c-.037.002-.073 0-.109 0l-.041-.009-.051-.016-.091-.05c-.013-.008-.054-.039-.066-.047l-.022-.019-.053-.046-.125-.118c-.132-.133-.207-.244-.304-.435l-.047-.099-.052-.141a3.07 3.07 0 0 1-.086-.306 2.63 2.63 0 0 1-.068-.615c-.002-.123.005-.242.014-.361zm4.95.407l.999-1.082a5.83 5.83 0 0 1 .57-.477l-.009.594.039 1.247.139 1.306.091.606c.013.062.053.147.066.182l.065.174a.77.77 0 0 0 .23.279c.121.091.307.016.378-.099.119-.195.119-.49.085-.715l-.096-.605-.013-.093c.005.034.003.025-.004-.028l-.017-.141-.033-.281-.059-.634-.074-1.224-.014-1.248c-.004-.145-.088-.279-.224-.333-.146-.059-.279-.021-.398.075l-1.148 1.017c-.359.376-.712.797-.912 1.282-.079.194.205.328.336.196zM28.486 62.826l-.013-.093c.005.034.003.025-.004-.028l-.018-.14-.033-.281-.059-.634-.074-1.224-.014-1.248c-.004-.145-.088-.279-.224-.333-.146-.059-.279-.021-.398.076l-1.148 1.017c-.359.376-.712.797-.912 1.282-.079.193.204.328.335.195l1-1.082a5.83 5.83 0 0 1 .57-.477l-.009.594.039 1.247.139 1.306.091.606c.013.062.053.147.066.182l.065.174a.77.77 0 0 0 .23.279c.121.091.307.016.378-.099.119-.195.119-.49.085-.715l-.095-.604zm-6.355-12.403c.476.111.946-.028 1.322-.33.802-.643.819-1.736.771-2.674-.028-.54-.068-1.149-.404-1.6-.342-.458-.929-.796-1.477-.47a.32.32 0 0 0-.057.044.21.21 0 0 0-.076.023 2.95 2.95 0 0 0-1.512 1.825c-.232.801-.147 1.732.361 2.413.268.356.629.664 1.072.768zm.027-.813c.017.008.055.027 0 0h0zm.955-.304c.009-.012.014-.02 0 0h0zm.259-2.354c-.004-.032-.002-.014 0 0h0zm-.246-.693c-.018-.021-.015-.022 0 0h0zm-1.833 1.516l.013-.121.013-.08a3.05 3.05 0 0 1 .146-.537l.041-.1.039-.092.017-.037.127-.248c.157-.274.362-.539.608-.743a.33.33 0 0 0 .201.094c-.046-.004.047.01.061.014l.11.036c.037.013.074.032.112.04a.61.61 0 0 1 .061.029l.107.061c.015.009.028.019.042.029.031.033.065.059.093.089l.045.049a1.5 1.5 0 0 1 .127.224c.003.011.028.079.032.091l.044.161.03.143.013.079.028.315c.028.421.066.857.007 1.278a2.31 2.31 0 0 0-.018.099l-.035.151-.041.136-.024.066a2.05 2.05 0 0 1-.117.219l-.062.092-.054.064-.098.098c-.012.011-.04.032-.046.038l-.094.062c-.014.009-.075.038-.082.043a1.26 1.26 0 0 1-.18.05l-.056.005c-.046.002-.091-.002-.137-.005l-.051-.011-.095-.026-.059-.02-.118-.063-.099-.064-.028-.02-.015-.014-.186-.183-.051-.062-.061-.087a2.21 2.21 0 0 1-.134-.231l-.04-.085a3.11 3.11 0 0 0-.032-.088 2.21 2.21 0 0 1-.068-.253l-.022-.12-.007-.06a2.6 2.6 0 0 1-.013-.261 2.45 2.45 0 0 1 .01-.242zm4.649-.488c.108.081.239.065.34-.02.272-.229.516-.49.765-.744l.203-.212.015.287.045 1.118.136 2.188c.018.207.17.41.399.399.2-.009.42-.176.399-.399l-.148-2.21-.078-1.118-.131-1.137c-.025-.128-.158-.227-.279-.241-.145-.017-.249.048-.335.161-.097.126-.218.242-.324.36l-.366.406-.707.828c-.076.102-.027.264.067.334zM46.67 60.323l.014.296.04 1.152.129 2.237c.018.207.17.41.399.399.2-.009.42-.176.399-.399l-.141-2.258c-.043-.765-.059-1.55-.205-2.304-.046-.236-.4-.333-.556-.147l-1.452 1.66c-.077.102-.027.265.067.334.108.081.239.065.34-.02.345-.292.655-.622.968-.949zm-15.154 1.27l.185 2.06c.018.207.17.41.399.399.2-.009.42-.176.399-.399l-.199-2.084-.25-2.128c-.021-.131-.165-.233-.287-.247-.149-.018-.256.049-.343.165-.207.271-.455.516-.684.769l-.706.829c-.075.103-.027.264.067.334.109.081.238.065.34-.02.35-.292.656-.633.972-.962l.105 1.284zm-.839-16.359c-.022.016-.017.012 0 0z"/><path d="M32.693 45.725c-.304-.419-.776-.753-1.314-.733-.124.005-.253.027-.371.068a1.55 1.55 0 0 0-.194.081l-.054.031a2.21 2.21 0 0 0-.084.061c-.15.114-.266.262-.322.435-.05.071-.098.143-.14.222-.114.213-.205.435-.276.667a4.42 4.42 0 0 0-.187 1.405c.03.949.427 2.036 1.446 2.3.49.127.993-.011 1.359-.357.351-.331.523-.793.586-1.261.067-.498.042-1.022-.007-1.522-.045-.487-.149-.994-.442-1.397zm-.918.216c.015.012.054.037 0 0h0zm.569 2.381l-.011.155-.007.066c.002-.018.012-.065-.003.021a2.35 2.35 0 0 1-.071.301l-.022.066-.012.031-.031.063-.061.108-.028.045c-.003.005-.024.032-.034.047l-.054.06-.075.072-.039.03c-.038.025-.079.044-.118.069l-.046.017-.069.018-.108.009c-.018 0-.036-.001-.054-.002s-.097-.017-.018 0l-.106-.024-.07-.021-.056-.023-.049-.025-.126-.078-.021-.017-.029-.025-.092-.091c-.055-.06-.076-.085-.138-.19l-.058-.105-.035-.072a2.08 2.08 0 0 1-.097-.284l-.063-.275-.024-.139c0 .001-.003-.02-.005-.032l-.009-.074a4.09 4.09 0 0 1 .056-1.253c.044-.216.104-.431.171-.64l.022-.068.142-.123c-.004.005.052-.022.063-.028l.04-.023.039-.022.057-.022.106-.032.049-.011.115-.005.111.004c-.078-.001-.009-.001.034.01a1.04 1.04 0 0 1 .098.031l.076.04c.031.017.06.038.09.057l.042.036.089.088.036.041.023.028.127.2.049.097.027.067a2.59 2.59 0 0 1 .086.297l.03.152.011.066c.001.009.003.016.004.022s.001.008.002.02c.042.419.062.852.043 1.271zm2.613-1.781a4.87 4.87 0 0 0-.29 1.472c-.016.476.089 1.004.371 1.397.274.382.676.656 1.147.72a1.37 1.37 0 0 0 1.256-.499c.303-.374.459-.835.568-1.298a6.25 6.25 0 0 0 .164-1.609c-.016-.51-.087-1.063-.378-1.496-.325-.484-.891-.83-1.488-.702a1.11 1.11 0 0 0-.693.48c-.068.113-.127.272-.131.407a.38.38 0 0 0 .014.109l-.23.327c-.13.212-.222.457-.308.692zm.556.22c.048-.225.118-.442.187-.661l.058-.195a.26.26 0 0 0 .263-.172c.005-.018.012-.035.019-.054l.111-.149c-.038.049.029-.02.044-.034l.037-.034.042-.036.067-.041c.017-.01.046-.021.052-.024l.087-.024.074-.001c.036.002.104.018.032 0l.122.031.04.015.137.08c.008.005.013.01.017.014l.028.024.092.092.035.041.082.137.043.085.037.102a2.12 2.12 0 0 1 .075.305l.015.093.013.13.014.33a5.82 5.82 0 0 1-.027.663l-.017.145c-.002.009-.01.072-.012.083l-.061.338a4.75 4.75 0 0 1-.159.59l-.044.117-.021.049a2.11 2.11 0 0 1-.128.233c-.013.019-.083.106-.028.043l-.069.077c-.026.027-.055.051-.083.077-.024.012-.043.027-.062.039l-.053.028-.099.029c-.006.002-.018.006-.03.007l-.136.001-.024-.003-.127-.032c-.013-.004-.071-.027-.084-.031l-.081-.043-.101-.064c-.017-.012-.048-.04-.047-.038l-.158-.16c-.011-.02-.023-.036-.034-.051l-.07-.121-.04-.083-.049-.137a2.5 2.5 0 0 1-.064-.272c0 .001-.003-.016-.005-.027l-.007-.052-.017-.162c-.032-.439.02-.871.112-1.295z"/><path d="M36.906 45.482zm-.468 3.849l.031-.006c.003-.001-.005 0-.031.006zm-.149-.001h.001zm6.485-4.211c-.005-.255-.286-.426-.51-.293-.384.229-.753.485-1.098.77l-.475.43c-.158.157-.334.332-.44.529-.11.205.127.5.344.344.173-.124.322-.285.479-.431l.461-.393c.163-.126.332-.243.507-.352l-.131 1.955-.037 1.279.02.643c.015.249.024.565.281.668.082.078.229.056.301-.026.233-.139.189-.447.18-.685l-.012-.602.028-1.301.101-2.536zm4.817 1.148l-.043-1.178c-.015-.224-.261-.41-.473-.271a5.23 5.23 0 0 0-.898.735c-.265.274-.543.59-.692.944-.097.229.245.392.4.233.117-.12.216-.264.326-.39a5.1 5.1 0 0 1 .37-.383 4.42 4.42 0 0 1 .337-.28l-.014.59-.038 1.27-.031 1.267-.002.606c.001.129-.007.279.06.393a.33.33 0 0 0 .074.088c-.017-.026-.014-.024.007.008l.064.103c.08.117.26.135.336 0l.053-.103c.015-.022.018-.03.012-.022a.48.48 0 0 0 .06-.074c.068-.115.054-.264.052-.393l-.002-.606.022-1.267.019-1.27zM35.982 60.053a4.4 4.4 0 0 1 .337-.28l-.014.59-.038 1.27-.031 1.267-.002.606c.002.129-.007.279.06.393a.33.33 0 0 0 .074.088c-.017-.026-.015-.024.007.008l.064.103c.08.117.26.135.336 0l.053-.103c.014-.022.018-.03.012-.022a.43.43 0 0 0 .06-.074c.068-.115.054-.264.052-.393l-.002-.606.022-1.267.018-1.27-.043-1.178c-.015-.224-.261-.41-.473-.271a5.23 5.23 0 0 0-.898.735c-.265.274-.543.59-.692.944-.097.229.245.392.4.233.117-.12.216-.264.326-.39l.371-.382zm15.382-9.952c.954-.079 1.514-.916 1.692-1.786.182-.888.141-1.951-.432-2.693a1.67 1.67 0 0 0-1.285-.647c-.374-.005-.764.13-.968.427-.055-.019-.123-.012-.173.033-.105.093-.194.18-.268.301a4.31 4.31 0 0 0-.19.35 5.04 5.04 0 0 0-.31.758c-.154.499-.186 1.042-.091 1.556.173.937 1.027 1.785 2.025 1.702zm.622-3.929h0zm-.35-.283l-.02-.008c.004 0 .012.004.02.008zm-.447-.073c.002.002-.013.003-.027.004.014-.003.026-.005.027-.004zm-.463.142h0zm-.6 1.1a8.22 8.22 0 0 1 .191-.73l.089-.287c.068.024.147.023.207-.018l.088-.053.062-.025c-.008.003.031-.013.053-.022h.001l.113-.043a1.81 1.81 0 0 1 .203-.053l.147-.008.103.007c.104.02.182.047.264.071l.022.012.104.059c.014.009.067.053.065.048l.056.053.079.089.038.054a1.72 1.72 0 0 1 .126.232c.001.007.032.082.036.096l.038.124c.026.097.043.195.063.293l.007.056.013.151.008.302-.009.246-.011.13-.007.066c-.029.172-.062.34-.113.504l-.037.108-.025.064-.102.2-.067.106-.05.068-.037.041a1.48 1.48 0 0 1-.098.096l-.017.017-.106.069c-.028.017-.059.029-.087.045-.024.005-.052.018-.075.025-.039.012-.078.017-.116.027l-.045.003a1.27 1.27 0 0 1-.138-.001l-.04-.004-.04-.008a1.5 1.5 0 0 1-.225-.067c-.008-.005-.054-.026-.071-.034a1.6 1.6 0 0 1-.136-.08l-.044-.03-.096-.083-.098-.102-.034-.041c-.005-.007-.008-.01-.012-.017-.054-.083-.106-.166-.148-.255l-.02-.045-.009-.021-.054-.169a2.33 2.33 0 0 1-.068-.313l-.003-.03-.008-.1-.005-.18c-.004-.26.021-.397.073-.642zM22.529 65.346c-.374-.005-.764.13-.968.427-.055-.019-.123-.012-.173.033a1.28 1.28 0 0 0-.268.301 4.37 4.37 0 0 0-.19.35 5.06 5.06 0 0 0-.31.758c-.154.499-.186 1.042-.091 1.556.172.938 1.026 1.786 2.024 1.702.954-.079 1.514-.916 1.692-1.787.182-.888.141-1.951-.432-2.693a1.67 1.67 0 0 0-1.284-.647zm.646 1.199h0zm-.35-.283l-.02-.008c.004 0 .012.003.02.008zm-.445-.073c.002.002-.013.003-.027.004.013-.004.025-.006.027-.004zm1.1 1.895l-.011.13-.007.066c-.029.172-.062.34-.113.504l-.037.108-.025.064-.102.2-.067.106-.05.068-.037.041a1.48 1.48 0 0 1-.098.096l-.017.017-.107.069-.087.045c-.024.005-.052.018-.075.025-.039.012-.077.017-.116.027l-.046.003a1.25 1.25 0 0 1-.137-.001l-.04-.004c-.007-.001-.021-.004-.04-.008a1.49 1.49 0 0 1-.225-.067c-.008-.005-.054-.026-.071-.034l-.137-.08-.044-.03-.096-.083-.098-.102-.034-.041-.012-.016c-.054-.083-.106-.166-.148-.255l-.02-.046-.009-.021-.054-.169a2.31 2.31 0 0 1-.068-.313l-.003-.03-.008-.1-.005-.179a2.71 2.71 0 0 1 .078-.643 8.23 8.23 0 0 1 .191-.73l.089-.287c.068.024.147.023.207-.018l.088-.053.062-.025c-.008.003.031-.013.052-.022h.001l.113-.043a1.8 1.8 0 0 1 .203-.053l.147-.008.103.007c.015.001.017.002.02.003.084.018.163.045.245.069l.022.012.104.059c.014.009.067.053.065.049l.056.053.079.089.038.054c.048.074.089.151.126.231.001.007.032.082.036.096l.038.124c.026.097.043.195.063.293l.007.056.012.151.008.302-.014.245zm34.902-20.862c-.064-.63-.229-1.238-.657-1.722-.405-.456-1.082-.738-1.681-.526a1.42 1.42 0 0 0-.723.546 1.03 1.03 0 0 0-.104.207c-.01.013-.021.023-.031.036-.376.478-.557 1.032-.602 1.635-.046.616.1 1.244.344 1.807.24.555.651 1.01 1.22 1.231.561.219 1.201.114 1.644-.296.385-.358.531-.884.596-1.388s.043-1.027-.008-1.531zm-1.441-1.281c.014.011.024.02 0 0h0zm-1.041.072l.026-.025-.026.025zm1.23 3.526c.011-.008.027-.022.028-.027-.002.008-.014.017-.028.027zm.378-.855c-.001-.009.013-.075 0 0zm.023-.277l-.011.149c-.003.039-.022.104-.015.143l-.008.049-.033.159a2.84 2.84 0 0 1-.082.272l-.015.035-.073.132-.033.05-.081.09-.044.04c-.017.016-.018.019-.015.018-.033.02-.078.041-.093.048l-.028.014c.029-.014.014-.005-.005.002l-.023.012.022-.012-.16.041c-.034-.001-.058.002-.08.002s-.046-.002-.071-.003c-.017 0-.018-.001-.021-.001l-.139-.033-.069-.022a1.54 1.54 0 0 0-.062-.026l-.093-.049a1.51 1.51 0 0 1-.126-.082c-.009-.009-.06-.05-.074-.062a1.35 1.35 0 0 1-.105-.109c.001.002-.022-.027-.039-.044l-.025-.033-.106-.165-.083-.155-.034-.071c-.052-.126-.092-.241-.127-.358l-.085-.327-.036-.178-.013-.132a3.07 3.07 0 0 1 0-.422l.007-.084.011-.093.008-.044.022-.125c.025-.134.062-.264.101-.395l.052-.15.042-.09a2.37 2.37 0 0 1 .178-.304l.027-.038.062-.078.024-.031.06-.042a1.02 1.02 0 0 1 .105-.06l.041-.021.025-.006.114-.032.062-.012.115-.005.058.003.153.043.073.033c.047.025.09.054.135.082l.078.066.101.102c.012.013.055.07.062.076.06.086.115.175.161.269l.02.045.018.047.052.165.045.189.02.106.011.066.009.076.009.086.013.173.015.414-.006.6z"/><path d="M56.997 49.609zm-34.891 6.68l.027.009c-.001-.001-.008-.004-.027-.009z"/><path d="M22.093 57.098a1.71 1.71 0 0 0 1.342-.204c.395-.256.658-.642.834-1.072.345-.837.348-1.917-.084-2.722a1.94 1.94 0 0 0-1.193-.961c-.449-.121-1.113-.064-1.322.409-.073.07-.141.143-.207.22a4.1 4.1 0 0 0-.451.621c-.259.446-.421.941-.445 1.457-.047.994.523 1.999 1.527 2.252zm-.731-2.7a2.39 2.39 0 0 1 .233-.597c.109-.205.239-.401.378-.588l.222-.283.052-.067.097-.011.044-.005.112-.003.104.008.101.018a1.91 1.91 0 0 1 .212.062c.002.002.052.022.07.03l.131.074.074.051.07.061.092.097.023.028c-.005-.004.04.055.041.057.049.073.092.148.131.227l.024.052.011.027.054.16a2.63 2.63 0 0 1 .065.276l.011.067.016.171a3.45 3.45 0 0 1-.015.584c-.001.005-.002.019-.004.031l-.005.033-.021.117-.066.265-.081.234-.031.069-.07.134-.06.099-.037.054-.017.023-.053.065-.101.104-.047.043a.49.49 0 0 0-.023.019l-.065.045-.112.064-.043.02-.144.044c-.028.007-.146.016-.064.014a2.48 2.48 0 0 1-.244-.001l-.073-.012-.132-.035-.082-.029c.002.001-.017-.005-.028-.01l-.082-.041a1.61 1.61 0 0 1-.201-.126c-.006-.007-.065-.055-.073-.063l-.098-.098-.06-.073-.06-.09-.076-.137-.025-.052-.011-.023-.01-.031a2.23 2.23 0 0 1-.076-.262l-.02-.107-.014-.164a1.8 1.8 0 0 1 .057-.623zm6.576.545l-.091-2.503a.35.35 0 0 0-.251-.329c-.156-.043-.296.033-.386.157l-1.195 1.622c-.076.107-.047.293.048.379.015.015.031.027.048.04.12.078.31.064.393-.039l.646-.823.053 1.522.105 1.235.176 1.328c.043.195.269.309.454.259.174-.048.259-.195.263-.357-.028-.416-.103-.81-.15-1.23l-.115-1.26zm4.44-1.303l.017-1.019c-.002-.198-.217-.411-.427-.326-.434.176-.839.404-1.187.72-.164.148-.312.326-.437.508-.062.091-.114.194-.161.294-.06.129-.091.232-.026.365.022.046.088.087.14.081.123-.015.187-.059.264-.153l.195-.221a4.53 4.53 0 0 1 .426-.417 2.89 2.89 0 0 1 .465-.32l-.047.357-.109 1-.096 1.984.043.515c.018.15.031.29.128.415a.44.44 0 0 0 .148.131l.029.014c.127.095.312.106.388-.044.034-.052.068-.081.091-.118a.45.45 0 0 0 .056-.151.68.68 0 0 0 .016-.127c0-.009-.005-.056-.009-.09l-.038-.435-.007-.967.137-1.995zm-4.567 11.803c-.434.176-.839.404-1.187.72-.164.148-.312.326-.437.508-.062.091-.114.194-.161.294-.06.129-.091.232-.026.365.022.045.088.087.14.08.123-.014.187-.059.264-.153l.195-.221a4.53 4.53 0 0 1 .426-.417 2.89 2.89 0 0 1 .465-.32l-.046.357-.109 1-.096 1.984.043.515c.018.15.031.29.128.415.041.053.087.1.148.131l.029.013c.127.095.312.106.389-.043.007-.013.009-.017.008-.019.026-.034.06-.063.083-.1a.44.44 0 0 0 .056-.151c.008-.04.015-.086.015-.127a1.92 1.92 0 0 0-.009-.09l-.038-.435-.007-.967.138-1.997.017-1.019c-.005-.196-.22-.409-.429-.324zm28.047-4.753l.195-.221a4.53 4.53 0 0 1 .426-.417 2.89 2.89 0 0 1 .465-.32l-.047.356-.109 1-.096 1.984.043.515c.018.15.031.29.128.415.041.053.087.1.148.131l.029.014c.127.095.312.106.388-.044.034-.052.068-.081.091-.118a.46.46 0 0 0 .056-.151.68.68 0 0 0 .016-.127 1.79 1.79 0 0 0-.009-.09l-.038-.435-.007-.967.138-1.997.017-1.019c-.002-.198-.217-.411-.427-.326-.434.176-.839.404-1.187.72-.164.148-.312.326-.437.508-.062.091-.114.194-.161.294-.06.129-.091.232-.026.365.022.045.088.087.14.08a.35.35 0 0 0 .263-.151zm-18.086-7.692c-.262-.531-.823-1.017-1.451-.957-.272.026-.523.138-.709.335-.036.003-.072.02-.101.056-.085.104-.185.19-.256.305l-.19.34a3.81 3.81 0 0 0-.287.798c-.122.471-.212.967-.204 1.455.013.852.343 1.774 1.212 2.076.957.332 1.94-.408 2.275-1.271.193-.495.206-1.045.139-1.567-.071-.536-.189-1.086-.429-1.571zm-1.541-.161c.014-.007.025-.015 0 0h0zm1.221 2.456l-.014.155c-.003.012-.015.084-.017.096a2.36 2.36 0 0 1-.097.344c-.016.043-.043.103-.085.175l-.073.115-.03.042-.192.199-.06.049-.107.072-.118.066-.066.03a2.53 2.53 0 0 1-.23.067l-.018.003-.041.004-.113.001c-.034-.001-.115-.018-.043-.001l-.143-.035c-.03-.01-.11-.049-.044-.015l-.108-.057-.079-.053c-.016-.018-.037-.033-.055-.049l-.072-.075-.032-.038c-.035-.073-.088-.138-.124-.209-.008-.015-.023-.05-.028-.061l-.035-.093c-.027-.08-.049-.162-.068-.245l-.036-.2-.01-.087-.009-.131c-.022-.447.04-.852.137-1.282l.173-.663c.113.023.243-.028.267-.156.004-.023.011-.047.017-.069a1.66 1.66 0 0 0 .105-.163c.002-.004.013-.019.02-.03s.017-.018.017-.019l.047-.05.044-.037.033-.02.045-.026c.03-.013.051-.017.071-.024.006-.002.016-.004.026-.006l.031-.002c.025-.001.05 0 .076.001a.43.43 0 0 1 .038.005l.134.036c.001 0 .012.005.02.009l.042.021a1.23 1.23 0 0 1 .114.071c.065.045.025.02.013.01l.072.065.085.091.018.023.045.068.072.123.037.073.024.051c.081.192.135.396.184.598l.07.315.027.148.014.085.003.02.003.025c.027.213.038.427.024.64zm5.913-1.916c-.191-.534-.543-1.006-1.105-1.174-.235-.071-.522-.083-.754.002-.266.097-.403.278-.505.534-.06.152.149.308.281.216l.057-.037c-.007.009.113-.019.078-.015l.042-.006.068-.009c-.012.002.045-.006.065-.009l.035-.002a1.96 1.96 0 0 1 .228.001c.006 0 .022.003.034.004l.022.005.137.036.072.025.081.042a1.03 1.03 0 0 1 .077.05l.076.072.051.055.028.036.024.036.03.047.072.13.024.051.018.046a3.44 3.44 0 0 1 .153.58l.081.581a4.21 4.21 0 0 1 .002.68c0 .004-.003.027-.004.037l-.011.067-.03.144-.046.162-.02.06c.001-.001-.028.068-.029.074-.035.078-.077.151-.124.222-.009.014-.045.06-.047.064l-.089.101-.102.098-.061.051a1.87 1.87 0 0 1-.237.148l-.063.031-.118.042-.136.034-.042.008-.043.004a1.24 1.24 0 0 1-.122.002l-.092-.008-.118-.028-.093-.033a1.29 1.29 0 0 1-.203-.12c-.007-.007-.049-.041-.061-.05a1.45 1.45 0 0 1-.11-.111l-.061-.074-.058-.084a1.79 1.79 0 0 1-.13-.24c-.002-.009-.027-.073-.032-.086l-.05-.169c-.027-.106-.051-.232-.06-.314a7 7 0 0 1-.027-.684l.014-.616.025-.299.016-.101.031-.148a3.3 3.3 0 0 1 .082-.285l.021-.061.011-.029a1.5 1.5 0 0 1 .067-.131c.097-.172.219-.304.322-.469.098-.154-.063-.295-.211-.275-.448.062-.755.552-.894.946-.141.401-.18.836-.192 1.259-.016.543-.028 1.115.144 1.637.152.463.448.882.874 1.131.908.533 2.051.056 2.565-.797.281-.466.366-1.037.343-1.573-.025-.5-.104-1.036-.273-1.509zm-1.093-.341c-.027-.019-.013-.011 0 0h0zm4.784-.463c-.038-.002-.048.001 0 0z"/><path d="M47.143 57.766c.49-.1.907-.492 1.14-.921.269-.499.34-1.065.398-1.621.106-1.033.176-2.246-.666-3.014-.406-.37-.969-.549-1.499-.351-.267.101-.498.27-.66.508l-.034.054-.058-.002a.21.21 0 0 0-.188.108c-.052.122-.123.231-.175.352a3.77 3.77 0 0 0-.156.429 5.44 5.44 0 0 0-.165.864 6.3 6.3 0 0 0-.002 1.606c.071.546.237 1.082.623 1.493.371.393.906.605 1.443.495zm-.212-.76h0zm.918-1.481h0zm-1.603-2.386c-.008.021.028-.051.017-.041.031-.041.07-.074.097-.119l.051-.093c.002-.004.008-.012.014-.02l.03-.037c.027-.031.057-.059.086-.088l.032-.025.108-.064.042-.022c.023-.012.103-.032.02-.011.035-.009.07-.023.105-.033.019-.005.042-.007.06-.014l.097-.004a.43.43 0 0 1 .036.002l.026.001.132.039c.006.002.024.011.037.015l.125.072.039.027.03.024c.066.057.122.122.18.186-.051-.057.032.044.043.061l.082.137.057.111.029.07a2.09 2.09 0 0 1 .084.293c.046.21.057.415.053.663l-.048.732-.034.33-.017.151c-.001.013-.003.021-.004.028l-.016.102a3.35 3.35 0 0 1-.166.666c-.002.004-.015.038-.021.052l-.021.046-.06.113-.078.124-.017.023-.045.054-.088.092c-.009.009-.067.057-.075.066l-.101.067-.085.044a.85.85 0 0 1-.11.035.62.62 0 0 1-.058.012c-.051.001-.093-.003-.134-.001l-.086-.018-.093-.029-.092-.047-.122-.078-.075-.067-.089-.093a.87.87 0 0 1-.026-.03l-.027-.036a1.91 1.91 0 0 1-.161-.286c-.001-.004-.029-.075-.033-.086l-.045-.137a3.33 3.33 0 0 1-.081-.342l-.014-.082-.009-.055-.019-.174-.025-.377a7.5 7.5 0 0 1 .014-.809l.086-.8.024-.168c.12.062.28.013.342-.15zm5.878.472l.065-.583.003-.021.006-.04c.011-.075.015-.147.018-.223l.02-.277c.011-.128-.092-.259-.204-.303-.129-.051-.26-.023-.362.069-.213.188-.447.347-.678.512l-.358.275c-.054.044-.114.086-.162.137-.058.061-.07.139-.117.203-.083.111.054.258.173.225.034-.01.073.003.108-.002a.38.38 0 0 0 .103-.031c.068-.028.133-.067.197-.103l.386-.235.059-.039-.064.435-.085 1.204c-.021.814.006 1.666.193 2.462.049.21.301.355.508.288.234-.076.321-.278.288-.508a.21.21 0 0 0-.002-.009l-.021-.151-.019-.12-.024-.162-.004-.024c-.001-.006-.002-.014-.003-.028l-.059-.586-.034-1.185.071-1.181zm3.294 1.863l.003.033h0l-.003-.033zm-.321-3.019c.009-.024.016-.044 0 0h0z"/><path d="M55.096 52.46z"/><path d="M57.543 52.151c-.436-.304-.985-.48-1.513-.394-.252.041-.512.159-.704.329-.113.1-.174.234-.23.372l-.02.055c-.01.027-.018.055-.025.083a1 1 0 0 0-.022.214c0 .038.012.074.03.106l-.021.043c-.124.248-.214.51-.28.778-.128.518-.153 1.082-.131 1.613.04.929.493 1.997 1.543 2.082.525.043 1.061-.25 1.39-.645.369-.444.535-1.001.631-1.56.107-.61.182-1.225.092-1.842-.075-.516-.31-.934-.74-1.234zm-1.498 4.45h0zm1.419-1.818l-.135.681-.098.317-.029.078c-.004.007-.006.011-.009.019l-.083.165c-.03.054-.063.107-.099.157l-.027.037-.024.029-.103.107-.055.049c-.009.008-.022.017-.032.024a1.52 1.52 0 0 1-.225.131c-.01.002-.075.026-.093.031l-.07.017c-.019.004-.118.009-.035.008l-.142.003c-.006 0-.017-.001-.026-.002l-.046-.009c-.038-.009-.074-.021-.11-.034l-.063-.034-.05-.031-.038-.027-.044-.041-.082-.088-.038-.053a1.73 1.73 0 0 1-.123-.219l-.011-.022-.017-.036-.049-.148a2.41 2.41 0 0 1-.064-.255l-.022-.126-.004-.034-.005-.044c-.022-.249-.021-.501-.013-.751l.025-.387.009-.08.009-.07.031-.209c-.008.053.003-.013.004-.019l.021-.118.038-.176.098-.367.117-.343.063-.231.14-.081.075-.028a1.58 1.58 0 0 1 .136-.034l.05-.01c.041.001.082-.006.123-.006s.074.004.11.006c.024.009.052.011.077.016.091.024.178.061.266.094l.061.028.131.067a1.87 1.87 0 0 1 .186.117c.006.006.051.043.064.055.031.029.06.061.088.093-.024-.026.03.041.044.062.022.036.041.073.061.11.007.016.011.027.012.031l.01.027c.017.054.031.11.043.166.084.414.037.975-.028 1.389z"/><path d="M57.436 53.201l-.008-.024.008.024zm-1.872 2.849l.01.022c.002.006.001.004-.01-.022zM32.901 66.809a11.31 11.31 0 0 0-.078-1.235c-.012-.103-.054-.191-.156-.232-.087-.035-.211-.026-.277.052l-.797.926-.4.462c-.125.163-.254.314-.326.509-.05.138.119.235.23.177.176-.091.315-.241.451-.382l.398-.447.382-.428-.014.596-.044 1.254c-.035.822-.104 1.67-.001 2.489.02.16.123.299.299.299.156 0 .307-.137.299-.299l-.001-2.489.033-1.253zm4.619 3.544l-.039-.621-.062-1.291-.035-1.292-.034-1.293c-.008-.125-.071-.235-.191-.284-.105-.043-.262-.033-.339.064l-.334.413-.34.373c-.23.253-.495.505-.67.802-.107.183.116.438.305.305.284-.199.512-.474.748-.724l.168-.175.039 1.835.055 1.291.038.645.024.334c.009.077.011.152.051.222.032.055.114.106.143.134.106.103.245.078.337-.016l.06-.049a.33.33 0 0 0 .088-.152c.015-.058.012-.126.008-.187l-.02-.334zm3.6-6.349c.472.164.985.026 1.347-.307.383-.354.543-.858.602-1.362.057-.48.059-.996.001-1.476-.068-.558-.245-1.121-.684-1.501-.2-.173-.432-.318-.696-.365a1.35 1.35 0 0 0-.351-.021c-.006-.004-.013-.007-.019-.009-.196-.048-.375.066-.527.182s-.291.275-.411.428a3.18 3.18 0 0 0-.555 1.107c-.222.789-.172 1.706.249 2.423.237.405.597.747 1.043.901zm1.116-1.196c.006-.012.01-.018 0 0h0zm-1.915-1.389a2.42 2.42 0 0 1 .054-.466c.078-.376.209-.687.403-1.012a2.77 2.77 0 0 1 .283-.388.66.66 0 0 0 .192.053c-.021-.003.082.011.101.012a.92.92 0 0 1 .137.034l.075.026.095.046.107.059.059.039.026.018c.071.058.132.122.192.189l.014.019.026.037c.03.044.057.089.082.136.083.157.137.35.173.546a2.07 2.07 0 0 1 .03.239l.016.339-.006.665c-.01.219-.023.382-.079.591l-.044.144-.026.07c-.051.1-.096.181-.151.256a1.16 1.16 0 0 0-.054.061 1.47 1.47 0 0 1-.09.086c-.003.003-.018.015-.024.02l-.03.02a1.09 1.09 0 0 1-.125.071c-.002-.001-.067.022-.078.025s-.082.015-.078.017c-.041.003-.081.002-.122.002-.005 0-.02-.002-.03-.002l-.047-.009a.98.98 0 0 1-.389-.191c-.142-.118-.252-.24-.339-.373a1.73 1.73 0 0 1-.218-.446 2.74 2.74 0 0 1-.114-.473c0-.006-.008-.067-.009-.078l-.009-.116a2.62 2.62 0 0 1-.004-.266zm2.226 4.356c-.448-.261-.969-.188-1.412.041a1.3 1.3 0 0 0-.533.487l-.033.063-.07.099c-.136.212-.235.457-.322.693a4.08 4.08 0 0 0-.231 1.524c.031.83.466 1.877 1.386 2.025.516.083 1.023-.138 1.369-.52.381-.419.527-.954.598-1.504.128-.986.254-2.323-.752-2.907zm-.921 4.243h0zm1.029-2.322l-.051.69a3.6 3.6 0 0 1-.1.614 1.7 1.7 0 0 1-.223.544l-.04.06-.026.035-.016.019-.048.053-.103.1-.042.035-.04.027a1.17 1.17 0 0 1-.121.071l-.032.016c-.008.004-.022.01-.026.011l-.133.038a.56.56 0 0 1-.095.009c-.023 0-.046 0-.07-.001-.004 0-.02-.002-.033-.003l-.074-.016-.079-.025a1.1 1.1 0 0 1-.096-.051l-.049-.032c-.004-.002-.014-.011-.023-.017l-.057-.051-.084-.089c-.009-.01-.017-.02-.025-.031l-.025-.035-.123-.206-.05-.107-.009-.021-.028-.078a2.51 2.51 0 0 1-.073-.254l-.023-.112-.007-.042-.007-.046a4 4 0 0 1 .103-1.387l.106-.361c.024-.047.05-.092.083-.132l.155-.182.088-.08.022-.019.071-.056.035-.029.107-.069.1-.056.069-.032.177-.056.1-.021.024-.002h.118c-.01.002.071.016.088.021l.045.016.025.013.106.064c-.009-.004.065.054.074.062a1.21 1.21 0 0 1 .096.103c.047.055.017.023.009.012l.04.059.07.123.013.026.021.057a1.77 1.77 0 0 1 .051.187 2.69 2.69 0 0 1 .036.638zm6.413-.961c-.225-.477-.639-.862-1.159-.986a1.33 1.33 0 0 0-.775.03 1.06 1.06 0 0 0-.358.219.89.89 0 0 0-.191.098c-.096.065-.204.133-.28.221-.349.408-.464.937-.554 1.451-.097.552-.131 1.123.038 1.665.145.469.444.883.852 1.156.395.263.919.351 1.37.187a1.97 1.97 0 0 0 1.074-.962c.249-.497.318-1.057.297-1.607-.018-.506-.097-1.008-.315-1.472zm-.537 1.06c-.004-.036-.002-.018 0 0h0zm-.925-1.296c-.038-.005-.032-.007 0 0h0zm.96 2.035l-.022.309c-.002.005-.015.082-.016.096l-.044.188a1.33 1.33 0 0 1-.217.478l-.032.045-.082.093-.103.098-.04.034-.136.084c-.012.007-.068.033-.082.041l-.076.025-.067.017-.046.01-.088.006c-.038.001-.075-.003-.113-.005l-.067-.014c-.044-.011-.086-.028-.129-.04l-.045-.021c-.041-.02-.08-.044-.118-.068L47 69.881l-.031-.022-.026-.022-.064-.059-.085-.089-.05-.061a1.69 1.69 0 0 1-.138-.222l-.031-.063-.022-.052-.02-.057a2.39 2.39 0 0 1-.083-.336c-.009-.047-.008-.039-.014-.113l-.01-.152.002-.35c.015-.453.064-.931.23-1.367a1.05 1.05 0 0 1 .157-.286c.02 0 .042-.003.065-.01.034-.01.071-.013.105-.023s.057-.024.084-.037c.083-.032.165-.036.235-.065l.037-.004.107-.004c.037 0 .073.003.109.006l.054.007a1.89 1.89 0 0 1 .215.06c-.012-.003.04.016.064.028.043.022.082.048.124.074l.032.024.083.081.049.055.038.051.05.078c.041.068.078.138.109.211.003.011.031.085.035.096l.044.144a3.1 3.1 0 0 1 .061.278l.02.126.011.105.019.624zm4.842-2.468c-.017-.285-.359-.452-.575-.238l-.742.732c-.255.235-.522.462-.744.73-.078.094-.1.22-.019.321.072.09.212.131.315.063.302-.2.568-.45.84-.688l.239-.201.013 1.458.017 2.176c.002.191.167.374.365.365s.367-.161.365-.365l-.028-2.176-.045-2.176zm4.771 3.466l-.003-.02.003.02z"/><path d="M58.201 69.676l-.018-.117-.004-.028-.003-.019-.083-.983-.044-2.039-.064-1.026c-.015-.139-.075-.26-.212-.315-.129-.051-.275-.028-.376.072l-.996.921c-.121.11-.954.803-.63.975.182.096.41-.079.555-.181.176-.123.342-.26.508-.394l.444-.361.078 3.264.081.58c.014.082.025.171.052.251a.65.65 0 0 0 .096.191.37.37 0 0 0 .157.121c.026.015.053.022.083.024.106.049.251.013.317-.084a.38.38 0 0 0 .111-.149c.026-.063.036-.129.033-.197-.005-.099-.029-.198-.048-.295l-.039-.208z"/><use xlink:href="#B"/><use xlink:href="#B" x="21.379"/></g><defs ><path id="B" d="M30.695 12.594c-3.18 0-5.767 2.589-5.767 5.769s2.588 5.769 5.767 5.769 5.767-2.589 5.767-5.769-2.587-5.769-5.767-5.769zm0 9.795a4.03 4.03 0 0 1-4.024-4.025 4.03 4.03 0 0 1 4.024-4.025 4.03 4.03 0 0 1 4.024 4.025 4.03 4.03 0 0 1-4.024 4.025z"/></defs></svg>