<svg width="24" height="27" viewBox="0 0 24 27" fill="none" xmlns="http://www.w3.org/2000/svg">
<path d="M10.1323 24.5323C4.9468 23.6454 1 19.1286 1 13.6902C1 8.25186 4.9468 3.735 10.1323 2.84814" stroke="white" stroke-width="1.4" stroke-miterlimit="10" stroke-linecap="round" stroke-linejoin="round"/>
<path d="M10.1323 2.84814L9.00427 4.85027" stroke="white" stroke-width="1.4" stroke-miterlimit="10" stroke-linecap="round" stroke-linejoin="round"/>
<path d="M10.1323 2.84814L8.16467 1.6611" stroke="white" stroke-width="1.4" stroke-miterlimit="10" stroke-linecap="round" stroke-linejoin="round"/>
<path d="M13.8677 2.84814C19.0532 3.735 23 8.25186 23 13.6902C23 19.1286 19.0532 23.6454 13.8677 24.5323" stroke="white" stroke-width="1.4" stroke-miterlimit="10" stroke-linecap="round" stroke-linejoin="round"/>
<path d="M13.8677 24.5323L14.9957 22.5302" stroke="white" stroke-width="1.4" stroke-miterlimit="10" stroke-linecap="round" stroke-linejoin="round"/>
<path d="M13.8677 24.5323L15.8353 25.7193" stroke="white" stroke-width="1.4" stroke-miterlimit="10" stroke-linecap="round" stroke-linejoin="round"/>
<path d="M15.6983 19.5301H8.30169C7.5784 19.5301 6.99207 18.9437 6.99207 18.2205V13.4902C6.99207 12.7669 7.5784 12.1805 8.30169 12.1805H15.6984C16.4217 12.1805 17.008 12.7669 17.008 13.4902V18.2205C17.008 18.9437 16.4216 19.5301 15.6983 19.5301Z" stroke="white" stroke-width="1.4" stroke-miterlimit="10" stroke-linecap="round" stroke-linejoin="round"/>
<path d="M15.8434 12.1805V10.9949C15.8434 8.87228 14.1227 7.15157 12.0001 7.15157C9.87745 7.15157 8.15674 8.87228 8.15674 10.9949V12.1805" stroke="white" stroke-width="1.4" stroke-miterlimit="10" stroke-linecap="round" stroke-linejoin="round"/>
<path d="M12 15.3374V16.3733" stroke="white" stroke-width="1.4" stroke-miterlimit="10" stroke-linecap="round" stroke-linejoin="round"/>
</svg>
