<svg width="25" height="28" viewBox="0 0 25 28" fill="none" xmlns="http://www.w3.org/2000/svg">
<path d="M6.23058 14.4258C6.23058 14.7406 6.23058 15.1813 6.23058 15.559V15.622C6.23058 16.6922 6.16763 17.9513 6.29354 18.8327C6.29354 19.0215 6.79718 19.0845 8.81173 19.0215C9.1265 19.0215 9.44127 19.0215 9.63013 19.0215C10.1967 19.0215 10.8263 19.0215 11.3929 19.0215H12.4631C13.2186 19.0215 14.037 19.0215 14.7924 19.0215H14.8554C15.1072 19.0215 15.422 19.0215 15.7997 19.0215C16.4293 19.0215 16.807 19.0215 17.1218 19.0215C17.8772 19.0215 18.0031 19.0215 18.0661 18.8956C18.2549 18.5808 18.192 18.0142 18.192 17.5736C18.192 17.4476 18.192 17.3217 18.192 17.1958C18.192 16.4404 18.192 15.622 18.192 14.8665C18.192 14.5517 18.192 14.2999 18.192 13.9851C18.192 13.4815 18.192 12.9149 18.192 12.3483C18.192 12.2854 18.192 12.1595 18.192 12.0335V11.9706C18.192 11.5299 18.192 10.8374 18.129 10.4597C18.129 10.2079 17.8772 10.1449 17.6883 10.1449C17.2477 10.0819 16.807 10.0819 16.3663 10.0819H16.3033C16.1774 10.0819 16.0515 10.0819 15.8627 10.0819C15.8627 9.95603 15.8627 9.83012 15.8627 9.70421V9.45239C15.8627 9.26353 15.8627 9.07467 15.7997 8.88581C15.7368 8.38217 15.6738 7.81557 15.4849 7.24898C15.1702 6.36761 14.4777 5.6751 13.5963 5.29737C12.652 4.85669 11.6447 4.85668 10.8263 5.17146C10.0079 5.48623 9.44127 6.17873 9.06355 7.0601C8.68582 8.06738 8.74877 9.13762 8.87468 10.0819C8.24513 10.0819 6.67127 10.1449 6.60831 10.1449C6.41945 10.1449 6.41945 10.4597 6.41945 11.7817C6.41945 12.0335 6.41945 12.2224 6.41945 12.2854C6.29354 13.1038 6.23058 13.7963 6.23058 14.4258ZM13.8481 10.2078H13.5963C13.0926 10.2078 12.589 10.2078 12.0854 10.2078C11.4558 10.2078 10.7004 10.2078 9.88196 10.2078C9.88196 10.1449 9.88196 10.1449 9.88196 10.0819C9.88196 10.019 9.88196 9.95603 9.819 9.95603C9.56718 6.99715 10.9522 6.36761 11.3929 6.2417C11.6447 6.17874 11.8965 6.11578 12.0854 6.11578C12.4631 6.11578 12.7779 6.24169 13.1556 6.43055C13.8481 6.74533 14.2888 7.31193 14.5406 8.13034C14.6665 8.63398 14.6665 9.07465 14.7295 9.57829V9.70421C14.7295 9.76716 14.7295 9.83012 14.7295 9.95603C14.7295 10.0819 14.7295 10.1449 14.7295 10.2708C14.3517 10.2078 14.0999 10.2078 13.8481 10.2078ZM7.42672 13.0408C7.42672 12.789 7.48968 11.6558 7.48968 11.341C7.7415 11.341 8.434 11.2781 8.93764 11.341C9.00059 11.341 9.1265 11.341 9.18945 11.341H9.25241C10.0708 11.341 10.8892 11.341 11.7076 11.341H12.0224C12.4631 11.341 12.8408 11.341 13.2815 11.341C14.5406 11.341 15.7368 11.341 16.9959 11.341C16.9959 11.341 16.9959 11.404 16.9959 11.4669C16.9959 11.7188 17.0588 12.1594 16.9959 12.4113C16.9329 13.0408 16.9329 13.7333 16.9959 14.3629C16.9959 14.5517 16.9959 14.7406 16.9959 14.8665C16.9959 15.1813 16.9959 15.559 16.9959 15.9367V15.9997C16.9959 16.6292 17.0588 17.3217 16.9959 18.0142C16.5552 17.9513 16.0515 18.0142 15.6108 18.0142C15.359 18.0142 15.0443 18.0142 14.7924 18.0142C13.974 18.0142 13.1556 18.0142 12.4002 18.0142H12.0854C11.267 18.0142 10.3226 18.0142 9.37832 18.0142C9.25241 18.0142 9.06355 18.0142 8.93764 18.0142H8.87468C8.434 18.0142 7.93036 18.0142 7.42672 18.0772C7.42672 18.0142 7.42672 17.8883 7.42672 17.7624C7.36376 17.007 7.30081 15.4331 7.30081 14.6147C7.30081 14.111 7.42672 13.1038 7.42672 13.0408Z" fill="white"/>
<path d="M5.97878 4.22714C7.11196 3.40873 8.43401 2.77919 9.88197 2.46442C10.6374 2.33851 11.3299 2.2126 12.0854 2.14964C12.0854 2.14964 12.0854 2.14964 12.1483 2.14964C12.2113 2.14964 12.3372 2.14964 12.4002 2.14964H12.4631H12.5261C14.2888 2.14964 15.9886 2.52736 17.5625 3.28282C18.5068 3.7235 19.3252 4.2901 20.0806 4.91965C20.3954 5.17147 20.6472 5.48625 20.8991 5.73807C21.1509 6.05285 21.4027 6.30466 21.7175 6.55648C21.8434 6.74534 22.0322 6.99716 22.1582 7.18602C22.347 7.5008 22.5988 7.75261 22.7877 8.00443C22.9136 8.25625 23.1025 8.50808 23.2284 8.75989C23.3543 8.94876 23.6691 9.51535 23.9209 10.019C24.0468 10.2708 24.1727 10.4597 24.2357 10.5226H24.3616H24.4245C24.4245 10.5226 24.4245 10.5226 24.4875 10.5226H24.5504C24.8023 10.0819 24.6134 8.06739 24.4875 7.5008C24.3616 6.87125 24.1727 6.2417 23.9209 5.5492C23.4802 4.2901 22.9766 2.90511 22.1582 1.96078C22.1582 1.96078 22.0952 1.89783 22.0322 1.89783C21.9693 1.77192 21.8434 1.77191 21.7175 1.83487C21.5916 1.89782 21.5916 2.02373 21.5916 2.14964C21.6545 2.2126 21.6545 2.27554 21.6545 2.3385C21.6545 2.40145 21.7175 2.40146 21.7175 2.46442C21.7804 2.65328 21.8434 2.9051 21.9693 3.09396C22.1582 3.66056 22.347 4.22715 22.4729 4.91965C22.5359 5.04556 22.5359 5.23443 22.5988 5.4233C21.2138 3.59761 19.3881 2.27555 17.4365 1.58305C15.422 0.827595 13.6593 0.575764 12.1483 0.764628C12.0854 0.764628 12.0854 0.764628 12.0224 0.764628H11.9595C7.6156 0.953493 3.90126 3.15691 2.01262 6.74533C0.690571 9.20057 0.627612 12.4113 0.690567 14.6147C0.690567 14.7406 0.879431 14.8036 1.00534 14.8036C1.19421 14.8036 1.25717 14.7406 1.25717 14.6147C1.44603 12.5372 1.69784 10.3967 2.57921 8.44512C3.27171 6.87125 4.46786 5.36033 5.97878 4.22714Z" fill="white"/>
<path d="M24.4245 13.9222C24.3616 13.7963 24.2356 13.7333 24.1097 13.7333C23.9838 13.7333 23.9209 13.7963 23.9209 13.9222C23.8579 14.3629 23.795 14.8035 23.795 15.2442C23.795 15.6219 23.732 15.9997 23.6691 16.3774C23.6061 16.6292 23.6061 16.881 23.5431 17.1329C23.4172 17.7624 23.1654 18.392 22.7247 19.1474L22.6618 19.2733C22.5988 19.3992 22.5359 19.4622 22.4729 19.5881C22.2211 20.0288 21.9063 20.4695 21.6545 20.9101C21.1509 21.6656 20.4584 22.484 19.577 23.0506C18.4438 23.8061 17.1218 24.3727 15.7368 24.6874C15.422 24.7504 14.8554 24.8134 14.5406 24.8763C13.5963 25.0022 12.5261 25.0652 11.5188 25.0022C10.5745 24.9393 9.56719 24.6874 8.49696 24.2468C6.29354 23.4284 4.65672 21.8545 3.1458 20.2177L3.08284 20.1547C2.51625 19.5252 2.39034 19.3992 2.32739 19.4622H2.26443C2.07557 19.5881 2.4533 21.4767 2.4533 21.5397C2.64216 22.1692 2.83102 22.7988 3.08284 23.4913C3.33466 24.2468 3.58648 24.9393 3.8383 25.5688C3.90125 25.6947 4.02717 25.9465 4.09012 26.1354C4.15308 26.1984 4.15307 26.2613 4.15307 26.3243C4.15307 26.3872 4.21603 26.3872 4.21603 26.4502C4.34194 26.702 4.46785 26.9538 4.71967 27.0168H4.78262C4.90853 27.0168 5.03445 26.9538 5.03445 26.8909C5.16036 26.639 5.0974 26.3872 4.97149 26.1354V26.0724C4.97149 25.8836 4.90853 25.6947 4.90853 25.5059C4.90853 25.4429 4.90853 25.3799 4.84558 25.317C4.78262 25.0652 4.78263 24.8763 4.71967 24.6245C4.71967 24.4986 4.65671 24.3727 4.65671 24.2468C4.59376 23.9949 4.53081 23.8061 4.53081 23.5543C4.97149 23.932 5.53808 24.3097 6.16762 24.6874C7.55263 25.5058 9.06355 26.0095 10.7004 26.1984C12.7779 26.4502 14.5406 26.3872 16.0515 26.0095C16.6181 25.8836 17.2477 25.6318 17.7513 25.4429C18.6327 25.1281 19.3881 24.8134 20.0806 24.3097C21.7804 23.1765 22.8506 21.3508 23.4802 19.9658C23.9838 18.9586 24.2986 17.8883 24.4245 16.944C24.6763 15.9997 24.8022 14.8665 24.4245 13.9222Z" fill="white"/>
<path d="M11.6447 13.4185C11.6447 13.6074 11.6447 13.7963 11.6447 13.9851C11.6447 14.111 11.6447 14.237 11.6447 14.3629C11.6447 14.5517 11.6447 14.6777 11.6447 14.8665C11.6447 15.3702 11.6447 15.8108 11.6447 16.3145C11.6447 16.4404 11.7076 16.6293 11.8335 16.7552C11.9594 16.8811 12.1483 16.944 12.3372 16.944C12.7779 16.944 13.0926 16.6292 13.0926 16.3145C13.0926 15.4961 13.0297 14.8665 12.9667 14.2999C12.9038 13.9222 12.8408 13.6074 12.7779 13.2926C12.7149 12.9779 12.6519 12.6001 12.3372 12.3483C12.2742 12.2854 12.1483 12.2224 12.0224 12.2854C11.8965 12.2854 11.8335 12.3483 11.7706 12.4113C11.5817 12.726 11.5817 13.0408 11.6447 13.4185Z" fill="white"/>
</svg>
