<svg width="115" height="111" viewBox="0 0 115 111" fill="none" xmlns="http://www.w3.org/2000/svg">
<circle cx="55.5" cy="55.5" r="55.5" fill="#00A57D"/>
<circle cx="93.5" cy="22.5" r="21.5" fill="#00A57D"/>
<path d="M84.1865 75.3228C82.258 72.7087 78.7686 68.9366 78.7686 68.9366C78.7686 68.9366 75.2791 72.7087 73.3506 75.323C70.547 79.1229 69.1841 82.0416 69.1841 84.2453C69.1841 89.5302 73.4837 93.8298 78.7686 93.8298C84.0534 93.8298 88.353 89.5302 88.353 84.2453C88.353 82.0416 86.9901 79.1229 84.1865 75.3228Z" fill="white"/>
<path d="M67.0651 44.4731L66.372 44.4804C65.4793 44.4897 64.6398 44.1496 64.0057 43.5224C63.3717 42.895 63.0225 42.0583 63.0225 41.1664V34.2691H56.8611V30.1615H67.1302V26.0538H56.8611V24H52.7534V26.0538H42.4843V30.1615H52.7534V34.2691H46.592V40.6584C46.592 42.7978 44.8516 44.5382 42.7122 44.5382H37.5168C37.6302 45.1421 37.6921 45.7639 37.6921 46.4002V57.0529C37.6921 57.6892 37.6301 58.3109 37.5168 58.9149H67.1302C69.3951 58.9149 71.2378 60.7576 71.2378 63.0225V65.0763H85.6145V63.0225C85.6145 52.7944 77.2933 44.4731 67.0651 44.4731Z" fill="white"/>
<path d="M27.6149 40.4305H24V63.0225H27.6149C30.9064 63.0225 33.5845 60.3445 33.5845 57.0529V46.4001C33.5845 43.1086 30.9064 40.4305 27.6149 40.4305Z" fill="white"/>
<path d="M110.093 16.9257C109.26 14.4404 107.854 12.1049 105.874 10.1256C104.095 8.34603 102.027 7.02984 99.8218 6.17704L77.177 28.8218C78.0298 31.0273 79.346 33.0948 81.1256 34.8744C83.1049 36.8537 85.4404 38.2597 87.9257 39.0926L110.093 16.9257Z" fill="white"/>
<path d="M91.9983 39.9359C96.9632 40.3609 102.075 38.6738 105.874 34.8744C109.674 31.075 111.361 25.9632 110.936 20.9983L91.9983 39.9359Z" fill="white"/>
<path d="M81.1256 10.1256C85.1588 6.09243 90.6709 4.43943 95.9163 5.16663L76.1666 24.9163C75.4394 19.6709 77.0924 14.1588 81.1256 10.1256Z" fill="white"/>
<path d="M102.23 31.2299C97.4085 36.0512 89.5915 36.0512 84.7701 31.2299C79.9488 26.4085 79.9488 18.5915 84.7701 13.7701C89.5915 8.94877 97.4085 8.94877 102.23 13.7701C107.051 18.5915 107.051 26.4085 102.23 31.2299Z" fill="white"/>
<path fill-rule="evenodd" clip-rule="evenodd" d="M96.0316 20.5468L96.0316 20.5468L91.919 20.5468L91.919 18.4905C91.919 17.3568 92.8416 16.4342 93.9753 16.4342C94.8393 16.4342 95.5807 16.97 95.8845 17.7267L97.3167 17.7267C96.9687 16.2034 95.6026 15.0634 93.9753 15.0634C92.0856 15.0634 90.5482 16.6008 90.5482 18.4905L90.5482 20.5468L89.8627 20.5468C89.1067 20.5468 88.4919 21.1617 88.4919 21.9177L88.4919 27.4012C88.4919 28.1572 89.1067 28.772 89.8627 28.772L98.0879 28.772C98.844 28.772 99.4588 28.1572 99.4588 27.4012L99.4588 21.9177C99.4588 21.1617 98.844 20.5468 98.0879 20.5468L97.4025 20.5468L97.4025 20.5468H96.0316Z" fill="#00A57D"/>
</svg>
