<svg width="24" height="24" viewBox="0 0 24 24" fill="none" xmlns="http://www.w3.org/2000/svg">
<path d="M16.9514 11.2355C15.3404 11.2355 14.0349 9.90727 14.0349 8.26826C14.0349 7.79113 14.1452 7.34239 14.3404 6.94392C14.8791 5.84655 16.2251 4.0515 16.9514 2.95026C17.6777 4.0515 19.0251 5.84655 19.5625 6.94392C19.759 7.34239 19.8692 7.79113 19.8692 8.26826C19.8692 9.90722 18.5624 11.2355 16.9514 11.2355Z" stroke="white" stroke-width="1.2" stroke-miterlimit="10" stroke-linecap="round" stroke-linejoin="round"/>
<path d="M17.5612 11.1697C17.5663 11.2574 17.5675 11.3464 17.5675 11.4353C17.5675 14.5251 15.1061 17.0293 12.0691 17.0293C9.03218 17.0293 6.57068 14.5251 6.57068 11.4353C6.57068 10.5378 6.77856 9.6906 7.14737 8.93879C8.16139 6.87165 10.7002 3.48923 12.0691 1.4118C12.8473 2.59302 14.0058 4.19718 15.0452 5.74207" stroke="white" stroke-width="1.2" stroke-miterlimit="10" stroke-linecap="round" stroke-linejoin="round"/>
<path d="M17.9985 15.9629C19.4066 16.4 20.2711 16.9919 20.2711 17.6432C20.2711 18.9907 16.5674 20.0829 11.9994 20.0829C7.43135 20.0829 3.72766 18.9907 3.72766 17.6431C3.72766 16.9919 4.5921 16.4 6.00158 15.9628" stroke="white" stroke-width="1.2" stroke-miterlimit="10" stroke-linecap="round" stroke-linejoin="round"/>
<path d="M19.3483 14.0479C21.5893 14.9261 23 16.1989 23 17.6161C23 20.2648 18.0745 22.4118 11.9994 22.4118C5.92424 22.4118 1 20.2648 1 17.6161C1 16.1989 2.40948 14.9261 4.65169 14.0479" stroke="white" stroke-width="1.2" stroke-miterlimit="10" stroke-linecap="round" stroke-linejoin="round"/>
</svg>
