<svg width="22" height="22" viewBox="0 0 22 22" fill="none" xmlns="http://www.w3.org/2000/svg">
<path fill-rule="evenodd" clip-rule="evenodd" d="M4.77398 8.36559C5.50034 7.77209 6.48443 7.57208 7.61304 7.57208H10.4065C11.6484 7.57208 12.7167 7.81515 13.4555 8.55213C14.1947 9.28962 14.4382 10.3561 14.4382 11.5935V14.387C14.4382 15.6288 14.1951 16.6977 13.4561 17.4366C12.7172 18.1756 11.6484 18.4186 10.4065 18.4186H7.61304C6.4958 18.4186 5.52221 18.2241 4.79818 17.6501C4.05058 17.0576 3.71374 16.179 3.61555 15.1451C3.57548 14.7232 3.88505 14.3486 4.307 14.3086C4.72895 14.2685 5.10349 14.578 5.14356 15C5.21932 15.7977 5.45039 16.2085 5.75163 16.4473C6.07643 16.7047 6.63261 16.8837 7.61304 16.8837H10.4065C11.4977 16.8837 12.0609 16.6612 12.3709 16.3513C12.6807 16.0414 12.9033 15.4782 12.9033 14.387V11.5935C12.9033 10.5081 12.6811 9.94757 12.3715 9.63875C12.0614 9.32952 11.4977 9.10697 10.4065 9.10697H7.61304C6.62351 9.10697 6.06761 9.29064 5.74513 9.55413C5.44371 9.80043 5.21208 10.2285 5.14449 11.062C5.11023 11.4845 4.74 11.7992 4.31753 11.7649C3.89507 11.7307 3.58037 11.3604 3.61462 10.938C3.70052 9.8785 4.02656 8.9763 4.77398 8.36559Z" fill="white"/>
<path fill-rule="evenodd" clip-rule="evenodd" d="M9.10701 7.57209H10.3962C11.638 7.57209 12.7064 7.81516 13.4452 8.55213C14.1844 9.28962 14.4278 10.3561 14.4278 11.5935V12.8929C15.4922 12.8874 16.0452 12.6666 16.3512 12.3606C16.6611 12.0507 16.8836 11.4875 16.8836 10.3963V7.60279C16.8836 6.51749 16.6615 5.9564 16.3525 5.64743C16.0436 5.33845 15.4824 5.11627 14.3971 5.11627H11.6037C10.5105 5.11627 9.94741 5.33704 9.63797 5.64492C9.33243 5.94902 9.1111 6.50086 9.10701 7.57209ZM8.55534 4.55693C9.29477 3.8211 10.3638 3.58139 11.6037 3.58139H14.3971C15.6347 3.58139 16.7005 3.82479 17.4378 4.5621C18.1751 5.29941 18.4185 6.36529 18.4185 7.60279V10.3963C18.4185 11.6381 18.1755 12.707 17.4365 13.4459C16.6976 14.1849 15.6287 14.4279 14.3869 14.4279H13.6604C13.2366 14.4279 12.893 14.0843 12.893 13.6605V11.5935C12.893 10.5081 12.6708 9.94758 12.3612 9.63876C12.0511 9.32953 11.4874 9.10697 10.3962 9.10697H8.33946C7.91562 9.10697 7.57202 8.76337 7.57202 8.33953V7.60279C7.57202 6.36117 7.815 5.29366 8.55534 4.55693Z" fill="white"/>
<path fill-rule="evenodd" clip-rule="evenodd" d="M21.2326 13.3023C21.6564 13.3023 22 13.6459 22 14.0697C22 18.4536 18.4536 22 14.0698 22C13.7933 22 13.5382 21.8513 13.402 21.6106C13.2657 21.3701 13.2695 21.0748 13.4117 20.8377L14.4862 19.047C14.7042 18.6835 15.1756 18.5657 15.5391 18.7838C15.9025 19.0018 16.0203 19.4733 15.8023 19.8367L15.5247 20.2994C18.3582 19.642 20.4651 17.1053 20.4651 14.0697C20.4651 13.6459 20.8088 13.3023 21.2326 13.3023Z" fill="white"/>
<path fill-rule="evenodd" clip-rule="evenodd" d="M6.47536 1.70059C3.64187 2.35796 1.53488 4.89466 1.53488 7.93023C1.53488 8.35408 1.19128 8.69767 0.767442 8.69767C0.343599 8.69767 0 8.35408 0 7.93023C0 3.54639 3.54639 0 7.93023 0C8.20672 0 8.46183 0.14872 8.59806 0.389328C8.73429 0.629927 8.73056 0.925197 8.58831 1.16229L7.51389 2.95298C7.29582 3.31643 6.82441 3.43428 6.46097 3.21622C6.09752 2.99815 5.97967 2.52674 6.19774 2.1633L6.47536 1.70059Z" fill="white"/>
</svg>
