<svg width="21" height="17" viewBox="0 0 21 17" fill="none" xmlns="http://www.w3.org/2000/svg">
<path d="M3.65919 6.08968C3.28946 6.08968 2.95085 6.08376 2.6242 6.07075C2.51412 6.06602 2.40165 6.06366 2.28918 6.06011C1.63229 6.04119 0.952668 6.02108 0.35441 5.794C0.160574 5.72068 0.00742044 5.50661 0.000241352 5.29609C-0.00334819 5.1861 0.0313508 5.0359 0.222793 4.9472C0.877287 4.64206 1.61195 4.56519 2.32387 4.49068C2.42797 4.48003 2.53207 4.46939 2.63497 4.45756C3.49287 4.36176 4.32086 4.31682 5.01843 4.28607C5.4731 4.26597 5.92898 4.24586 6.38485 4.22457C7.54307 4.17135 8.74079 4.11695 9.91935 4.07319C10.6947 4.04362 11.4688 4.01524 12.2442 3.98567C13.5149 3.93836 14.7856 3.89105 16.0563 3.84138L16.499 3.82482L16.1077 3.61903C15.8026 3.45937 15.5346 3.321 15.2881 3.198C14.5953 2.85147 13.8858 2.51913 13.1823 2.21045C13.0112 2.13476 12.8245 2.06498 12.645 1.99638C12.1066 1.79178 11.5514 1.58126 11.1889 1.19097C10.9974 0.985182 10.9388 0.72972 11.0297 0.490817C11.1266 0.228259 11.3815 0.0425769 11.689 0.00946153C11.7452 0.00354807 11.8039 0 11.8625 0C12.4093 0 13.0088 0.261375 13.5364 0.493182C13.6812 0.555865 13.8212 0.617365 13.9552 0.671768C14.7329 0.985182 15.4413 1.28913 16.1245 1.60136C17.6656 2.30506 19.0368 3.03005 20.3147 3.81773C20.6844 4.04599 20.8507 4.46111 20.7371 4.87742C20.6234 5.29491 20.2668 5.57284 19.8301 5.58467C17.3557 5.65799 14.8394 5.74788 12.4069 5.8354C11.6136 5.86378 10.8203 5.89217 10.027 5.92055C8.81976 5.96313 7.59093 5.99743 6.40399 6.03054L5.12611 6.06602C4.72169 6.07667 4.18924 6.08968 3.65919 6.08968Z" fill="white"/>
<path d="M9.37098 17C9.35543 17 9.33988 17 9.32432 16.9976C8.52385 16.9338 7.8885 16.5364 7.21726 16.1142L7.07846 16.0278C6.41798 15.6151 5.7587 15.1787 5.11857 14.7292C3.88137 13.86 2.64537 12.8653 1.33997 11.6885C1.04443 11.4224 1.04922 11.0475 1.15212 10.7861C1.29092 10.4337 1.60321 10.2054 1.949 10.2054H1.96455C2.98638 10.2244 4.02854 10.2338 5.05994 10.2338C7.20409 10.2338 9.40688 10.1924 11.6049 10.1108C13.1687 10.0529 14.7589 9.97127 16.2952 9.89203L16.4747 9.88257C16.7284 9.86956 16.982 9.85418 17.2357 9.83881C17.7633 9.80688 18.3078 9.77258 18.8426 9.7643L19.0197 9.76075C19.1621 9.75838 19.308 9.75484 19.454 9.75484C19.9075 9.75484 20.4328 9.78086 20.8839 9.97245C20.9533 10.002 20.9915 10.0552 20.9987 10.1309C21.0095 10.2397 20.9509 10.3675 20.8635 10.4266C20.3502 10.772 19.6084 10.8689 18.9539 10.9553C18.8617 10.9671 18.772 10.9789 18.6847 10.9907C18.0816 11.0747 17.4606 11.1303 16.8612 11.1847C16.6865 11.2001 16.5118 11.2166 16.3371 11.2332C14.9551 11.3633 13.4906 11.4709 11.5917 11.5833C9.41765 11.7122 7.11316 11.8115 4.74286 11.8813L4.40066 11.8908L4.67466 12.0942C5.21788 12.4963 5.72999 12.8618 6.2397 13.213C6.8595 13.64 7.49604 14.0539 8.1302 14.443C8.23549 14.5069 8.33959 14.5696 8.44249 14.6311C9.02519 14.9788 9.57559 15.3076 9.98001 15.867C10.12 16.0609 10.126 16.3259 9.99557 16.5754C9.86395 16.8332 9.61747 17 9.37098 17Z" fill="white"/>
</svg>
