<svg xmlns="http://www.w3.org/2000/svg" width="57" height="57" fill="none" xmlns:v="https://vecta.io/nano"><circle cx="28.5" cy="28.5" r="28.5" fill="#ffd140"/><g fill="#23353d"><path d="M18.26 35.353c.193-.193.457-.306.738-.306H44.47c.465 0 .698.563.369.893l-5.032 5.045c-.193.193-.457.306-.738.306H13.598c-.465 0-.698-.563-.369-.893l5.032-5.045zm-.001-18.836a1.07 1.07 0 0 1 .738-.306h25.471c.465 0 .698.563.369.893l-5.032 5.045c-.193.193-.457.306-.738.306h-25.47c-.465 0-.698-.563-.369-.893l5.032-5.045z"/><path d="M39.808 25.874c-.193-.193-.457-.306-.738-.306H13.598c-.465 0-.698.563-.369.893l5.032 5.045c.193.193.457.306.738.306H44.47c.465 0 .698-.563.369-.893l-5.032-5.045z"/></g></svg>