<svg xmlns="http://www.w3.org/2000/svg" width="71" height="36" fill="none" xmlns:v="https://vecta.io/nano"><path d="M24.473 18.531h-2.174l-.012-1.072h1.898a2.1 2.1 0 0 0 .814-.141c.227-.098.398-.236.516-.416s.176-.404.176-.662c0-.285-.055-.518-.164-.697s-.277-.311-.504-.393-.508-.123-.856-.123h-1.424v7.359h-1.471v-8.531h2.894c.469 0 .887.045 1.254.135s.686.231.943.422a1.78 1.78 0 0 1 .592.715c.137.289.205.633.205 1.031a1.91 1.91 0 0 1-.252.967c-.168.289-.416.525-.744.709s-.736.293-1.225.328l-.469.369zm-.064 3.855h-2.572l.662-1.166h1.91c.332 0 .609-.055.832-.164s.389-.267.498-.463.17-.432.17-.697c0-.277-.049-.518-.146-.721a1.01 1.01 0 0 0-.463-.475c-.211-.113-.486-.17-.826-.17h-1.652l.012-1.072h2.15l.334.404c.469.016.854.119 1.154.311a1.8 1.8 0 0 1 .68.744c.148.305.223.633.223.984 0 .543-.119.998-.357 1.365s-.572.646-1.014.838-.973.281-1.594.281zm10.031-1.166v1.166h-4.529v-1.166h4.529zm-4.113-7.365v8.531h-1.471v-8.531h1.471zm3.521 3.562v1.148h-3.937v-1.148h3.938zm.563-3.562v1.172h-4.5v-1.172h4.5zm4.857 0v8.531h-1.459v-8.531h1.459zm2.678 0v1.172h-6.791v-1.172h6.791zm3.885 1.137l-2.549 7.395h-1.541l3.211-8.531h.984l-.105 1.137zm2.133 7.395l-2.555-7.395-.111-1.137h.99l3.223 8.531h-1.547zm-.123-3.164v1.166H43.2v-1.166h4.641z" fill="#e9e9e9"/><path d="M34.169 35.387a87.47 87.47 0 0 1-2.555-.037c-6.897-.2-13.325-1.246-19.109-3.109-2.703-.872-5.004-2.007-7.033-3.472-1.721-1.242-3.822-2.985-4.79-5.445-2.059-5.238.846-11.276 4.641-14.936C9.067 4.776 14.282 2.423 21.732.983 25.106.33 28.699 0 32.409 0c2.837 0 5.823.194 8.874.575 3.572.447 6.748 1.024 9.705 1.762 1.991.499 3.97 1.168 5.885 1.817l3.04 1.005c-2.258-.589-4.577-1.012-6.827-1.42l-2.767-.515c-3.097-.602-6.61-1.286-10.137-1.681-2.922-.328-5.739-.494-8.368-.494-4.327 0-8.382.451-12.049 1.341-6.781 1.646-11.637 4.308-14.846 8.14-3.531 4.22-5.165 10.59-1.453 14.602 3.644 3.939 8.754 5.571 13.731 6.75 4.784 1.131 9.932 1.706 15.304 1.706l2.287-.033c6.777-.196 12.52-.82 17.559-1.906 4.208-.907 9.493-2.456 13.052-6.42 1.127-1.253 3.007-3.828 2.955-6.976-.047-2.94-2.171-5.159-3.943-6.501-1.779-1.347-4.059-2.33-6.257-3.189-1.95-.764-3.987-1.391-5.958-1.996l-1.319-.408c-.134-.041-.163-.19-.149-.278.01-.07.047-.155.157-.155a.1.1 0 0 1 .025.002c1.379.128 2.844.282 4.261.622 6.42 1.547 10.764 3.925 13.286 7.271 3.25 4.314.931 10.403-2.899 13.943-3.529 3.259-8.327 5.353-14.67 6.397-5.743.946-11.37 1.426-16.719 1.426z" fill="#455a64"/></svg>