<svg xmlns="http://www.w3.org/2000/svg" width="75" height="48" fill="none" xmlns:v="https://vecta.io/nano"><path d="M42.053 23.606L39.504 31h-1.541l3.211-8.531h.984l-.105 1.137zM44.186 31l-2.555-7.395-.111-1.137h.99L45.732 31h-1.547zm-.123-3.164v1.166h-4.641v-1.166h4.641zm7.969 1.998V31h-4.283v-1.166h4.283zm-3.873-7.365V31h-1.471v-8.531h1.471zm8.209 4.676h-2.174l-.012-1.072h1.898c.32 0 .592-.047.814-.141s.398-.236.516-.416.176-.404.176-.662c0-.285-.055-.518-.164-.697a.94.94 0 0 0-.504-.392c-.223-.082-.508-.123-.855-.123h-1.424V31h-1.471v-8.531h2.895c.469 0 .887.045 1.254.135s.686.23.943.422a1.78 1.78 0 0 1 .592.715c.137.289.205.633.205 1.031a1.91 1.91 0 0 1-.252.967c-.168.289-.416.525-.744.709s-.736.293-1.225.328l-.469.369zM56.303 31h-2.572l.662-1.166h1.91c.332 0 .609-.055.832-.164s.389-.268.498-.463.17-.432.17-.697c0-.277-.049-.518-.147-.721a1.01 1.01 0 0 0-.463-.475c-.211-.113-.486-.17-.826-.17h-1.652l.012-1.072h2.15l.334.404c.469.016.854.119 1.154.31a1.8 1.8 0 0 1 .68.744c.148.305.223.633.223.984 0 .543-.119.998-.357 1.365s-.572.646-1.014.838-.973.281-1.594.281zm9.234-8.531h1.465v5.701c0 .649-.141 1.191-.422 1.629a2.65 2.65 0 0 1-1.148.99c-.48.219-1.017.328-1.611.328-.613 0-1.16-.109-1.641-.328a2.62 2.62 0 0 1-1.137-.99c-.273-.437-.41-.98-.41-1.629v-5.701h1.465v5.701c0 .41.07.748.211 1.014a1.32 1.32 0 0 0 .598.58c.258.125.563.188.914.188s.654-.062.908-.187a1.32 1.32 0 0 0 .598-.58c.141-.266.211-.603.211-1.014v-5.701zm7.553 6.334c0-.176-.027-.332-.082-.469s-.143-.262-.275-.375-.32-.223-.562-.328-.543-.221-.914-.334c-.406-.125-.781-.264-1.125-.416s-.637-.336-.891-.539-.451-.443-.592-.709-.211-.58-.211-.932a2.07 2.07 0 0 1 .217-.949c.148-.285.357-.531.627-.738a3 3 0 0 1 .967-.486c.371-.117.781-.176 1.23-.176.633 0 1.178.117 1.635.351s.814.549 1.061.943a2.39 2.39 0 0 1 .375 1.307H73.09a1.49 1.49 0 0 0-.182-.744 1.23 1.23 0 0 0-.539-.516c-.238-.125-.541-.187-.908-.187-.348 0-.637.053-.867.158s-.402.248-.516.428a1.12 1.12 0 0 0-.17.609c0 .16.037.307.111.439s.188.25.34.363.344.213.574.311.502.191.814.281a8.06 8.06 0 0 1 1.236.469c.352.168.645.359.879.574s.41.459.527.732.176.576.176.92c0 .359-.072.684-.217.973a2.1 2.1 0 0 1-.621.732c-.266.199-.586.354-.961.463s-.785.158-1.242.158a4.56 4.56 0 0 1-1.213-.164c-.394-.109-.754-.275-1.078-.498s-.582-.508-.773-.844-.287-.736-.287-1.189h1.471c0 .277.047.514.141.709s.232.355.404.48.371.211.598.27.477.088.738.088c.344 0 .631-.049.861-.147s.41-.234.527-.41.176-.379.176-.609zM17.889 41.818h-2.221v-1.166h2.221c.387 0 .699-.062.938-.187s.412-.297.521-.516.17-.476.17-.762c0-.27-.057-.522-.17-.756s-.283-.43-.521-.574-.551-.217-.937-.217h-1.77V45h-1.471v-8.531h3.24c.66 0 1.221.117 1.682.352s.818.551 1.061.961.363.871.363 1.395c0 .551-.121 1.023-.363 1.418s-.596.697-1.061.908-1.021.316-1.682.316zm4.424-5.35h3.018c.648 0 1.201.098 1.658.293s.807.484 1.049.867.369.848.369 1.406c0 .426-.078.801-.234 1.125a2.29 2.29 0 0 1-.662.82c-.285.219-.625.389-1.02.51l-.445.217h-2.713l-.012-1.166h2.033c.352 0 .645-.062.879-.187s.41-.295.527-.51a1.5 1.5 0 0 0 .182-.738c0-.297-.059-.555-.176-.773s-.289-.392-.527-.51-.541-.182-.908-.182h-1.547V45h-1.471v-8.531zM27.182 45l-2.004-3.832 1.541-.006 2.033 3.762V45h-1.57zm9.492-4.5v.469c0 .645-.084 1.223-.252 1.734s-.408.947-.721 1.307a3.1 3.1 0 0 1-1.113.826c-.434.188-.914.281-1.441.281a3.58 3.58 0 0 1-1.436-.281c-.43-.191-.803-.467-1.119-.826s-.562-.795-.738-1.307-.258-1.09-.258-1.734V40.5c0-.645.086-1.221.258-1.728s.414-.947.727-1.307a3.13 3.13 0 0 1 1.119-.826c.434-.191.912-.287 1.436-.287a3.53 3.53 0 0 1 1.441.287c.434.188.807.463 1.119.826s.553.795.721 1.307.258 1.084.258 1.728zm-1.471.469v-.48c0-.477-.047-.897-.141-1.26s-.225-.674-.404-.92a1.69 1.69 0 0 0-.65-.562c-.258-.129-.549-.193-.873-.193s-.613.064-.867.193a1.75 1.75 0 0 0-.65.563c-.176.246-.311.553-.404.92s-.141.783-.141 1.26v.48c0 .477.047.898.141 1.266s.23.678.41.932a1.85 1.85 0 0 0 .656.568c.254.125.543.188.867.188s.619-.062.873-.187.469-.318.645-.568.309-.564.398-.932a5.14 5.14 0 0 0 .141-1.266zm6.158-4.5V45h-1.459v-8.531h1.459zm2.678 0v1.172h-6.791v-1.172h6.791zm7.764 4.031v.469c0 .645-.084 1.223-.252 1.734s-.408.947-.721 1.307a3.1 3.1 0 0 1-1.113.826c-.434.188-.914.281-1.441.281a3.58 3.58 0 0 1-1.436-.281c-.43-.191-.803-.467-1.119-.826s-.562-.795-.738-1.307-.258-1.09-.258-1.734V40.5c0-.645.086-1.221.258-1.728s.414-.947.727-1.307a3.13 3.13 0 0 1 1.119-.826c.434-.191.912-.287 1.436-.287a3.53 3.53 0 0 1 1.441.287c.434.188.807.463 1.119.826s.553.795.721 1.307.258 1.084.258 1.728zm-1.471.469v-.48c0-.477-.047-.897-.141-1.26s-.225-.674-.404-.92a1.69 1.69 0 0 0-.65-.562c-.258-.129-.549-.193-.873-.193a1.89 1.89 0 0 0-.867.193 1.75 1.75 0 0 0-.65.563c-.176.246-.311.553-.404.92s-.141.783-.141 1.26v.48c0 .477.047.898.141 1.266s.23.678.41.932a1.85 1.85 0 0 0 .656.568c.254.125.543.188.867.188s.619-.062.873-.187.469-.318.645-.568.309-.564.398-.932.141-.789.141-1.266zm7.98 1.254h1.465a3.38 3.38 0 0 1-.469 1.494 2.79 2.79 0 0 1-1.119 1.025c-.48.25-1.065.375-1.752.375-.527 0-1.002-.094-1.424-.281a3.12 3.12 0 0 1-1.084-.809c-.301-.351-.531-.775-.691-1.271s-.234-1.051-.234-1.664v-.709c0-.613.08-1.168.24-1.664s.398-.92.703-1.272a3.04 3.04 0 0 1 1.096-.814c.43-.187.912-.281 1.447-.281.68 0 1.254.125 1.723.375a2.71 2.71 0 0 1 1.09 1.037c.262.441.422.947.48 1.517h-1.465c-.039-.367-.125-.682-.258-.943a1.33 1.33 0 0 0-.574-.598c-.254-.141-.586-.211-.996-.211-.336 0-.629.063-.879.188a1.66 1.66 0 0 0-.627.551c-.168.242-.295.541-.381.896a5.34 5.34 0 0 0-.123 1.207v.721a5.69 5.69 0 0 0 .111 1.172c.078.348.195.647.352.897s.363.443.609.58.541.205.885.205c.418 0 .756-.066 1.014-.199a1.33 1.33 0 0 0 .592-.58c.137-.258.227-.572.27-.943zm9.603-1.723v.469c0 .645-.084 1.223-.252 1.734s-.408.947-.721 1.307a3.1 3.1 0 0 1-1.113.826c-.434.188-.914.281-1.441.281a3.58 3.58 0 0 1-1.436-.281c-.43-.191-.803-.467-1.119-.826s-.562-.795-.738-1.307-.258-1.09-.258-1.734V40.5c0-.645.086-1.221.258-1.728s.414-.947.727-1.307a3.13 3.13 0 0 1 1.119-.826c.434-.191.912-.287 1.436-.287a3.53 3.53 0 0 1 1.441.287c.434.188.807.463 1.119.826s.553.795.721 1.307.258 1.084.258 1.728zm-1.471.469v-.48c0-.477-.047-.897-.141-1.26s-.225-.674-.404-.92a1.69 1.69 0 0 0-.65-.562c-.258-.129-.549-.193-.873-.193s-.613.064-.867.193a1.75 1.75 0 0 0-.65.563c-.176.246-.311.553-.404.92s-.141.783-.141 1.26v.48c0 .477.047.898.141 1.266s.23.678.41.932a1.85 1.85 0 0 0 .656.568c.254.125.543.188.867.188s.619-.062.873-.187.469-.318.644-.568.309-.564.398-.932a5.14 5.14 0 0 0 .141-1.266zm8.285 2.865V45h-4.283v-1.166h4.283zm-3.873-7.365V45h-1.471v-8.531h1.471z" fill="#fff"/><path d="M35.254 8.902c0-.234-.039-.443-.117-.627s-.207-.348-.387-.492-.414-.285-.715-.41a8.86 8.86 0 0 0-1.113-.381c-.426-.121-.811-.254-1.154-.398s-.639-.311-.885-.498a1.97 1.97 0 0 1-.557-.656c-.129-.254-.193-.549-.193-.885 0-.328.07-.627.211-.896a2.1 2.1 0 0 1 .592-.697c.258-.195.561-.346.908-.451s.736-.158 1.154-.158c.598 0 1.113.113 1.547.34a2.52 2.52 0 0 1 1.014.92 2.36 2.36 0 0 1 .363 1.289h-.721c0-.371-.088-.701-.264-.99s-.422-.521-.75-.686-.721-.252-1.19-.252-.863.072-1.183.217-.557.33-.721.568a1.36 1.36 0 0 0-.24.785c0 .203.039.391.117.563s.205.326.381.475.416.281.709.41.654.244 1.084.357c.453.125.855.264 1.207.416s.648.328.891.527.426.424.551.686.188.566.188.914-.074.66-.223.938-.35.506-.615.697-.572.338-.932.439a4.23 4.23 0 0 1-1.166.152 4.47 4.47 0 0 1-1.131-.146c-.375-.098-.719-.248-1.031-.451s-.557-.473-.744-.797-.275-.711-.275-1.16h.715c0 .359.072.662.217.908s.336.445.574.598.508.264.797.334a3.96 3.96 0 0 0 .879.1c.449 0 .838-.067 1.166-.199s.588-.318.768-.557.275-.523.275-.844zm8.584-2.625v.914c0 .598-.078 1.139-.234 1.623a3.52 3.52 0 0 1-.668 1.236c-.289.344-.637.607-1.043.791s-.863.275-1.371.275a3.29 3.29 0 0 1-1.359-.275 2.97 2.97 0 0 1-1.049-.791c-.293-.344-.52-.756-.68-1.236a5.15 5.15 0 0 1-.24-1.623v-.914c0-.598.078-1.137.234-1.617s.387-.898.68-1.242a2.97 2.97 0 0 1 1.049-.791 3.25 3.25 0 0 1 1.354-.275c.508 0 .965.092 1.371.275a2.97 2.97 0 0 1 1.049.791c.293.344.518.758.674 1.242s.234 1.02.234 1.617zm-.715.914v-.926c0-.504-.058-.957-.176-1.359s-.283-.746-.51-1.031a2.23 2.23 0 0 0-.82-.656c-.324-.152-.693-.229-1.107-.229-.402 0-.764.076-1.084.229s-.594.371-.82.656-.395.629-.516 1.031-.176.855-.176 1.359v.926c0 .508.059.965.176 1.371a3.12 3.12 0 0 0 .522 1.037 2.3 2.3 0 0 0 .82.656c.324.152.688.229 1.09.229a2.55 2.55 0 0 0 1.107-.229c.32-.152.592-.371.814-.656s.391-.635.504-1.037.176-.863.176-1.371zm7.471 3.193V11H46.17v-.615h4.424zm-4.213-7.916V11h-.721V2.469h.721zm8.525.51L51.953 11h-.75l3.223-8.531h.521l-.041.51zM57.59 11l-2.959-8.021-.041-.51h.522L58.34 11h-.75zm-.527-3.012v.621h-4.529v-.621h4.529zm8.894-5.52V11h-.726l-4.904-7.289V11h-.721V2.469h.721l4.916 7.289V2.469h.715zm5.086.51L68.09 11h-.75l3.223-8.531h.522l-.041.51zM73.727 11l-2.959-8.021-.041-.51h.521L74.477 11h-.75zm-.527-3.012v.621H68.67v-.621h4.529z" fill="#ffd140"/></svg>